<mxfile host="Electron" modified="2023-12-04T07:44:35.334Z" agent="Mozilla/5.0 (Windows NT 10.0; Win64; x64) AppleWebKit/537.36 (KHTML, like Gecko) draw.io/22.0.2 Chrome/114.0.5735.289 Electron/25.8.4 Safari/537.36" etag="_00W3Mk9lExejFJVd9Dy" version="22.0.2" type="device">
  <diagram name="Page-1" id="cavzR3x5lZDVi7JgBhz2">
    <mxGraphModel dx="956" dy="592" grid="1" gridSize="10" guides="1" tooltips="1" connect="1" arrows="1" fold="1" page="1" pageScale="1" pageWidth="827" pageHeight="1169" math="0" shadow="0">
      <root>
        <mxCell id="0" />
        <mxCell id="1" parent="0" />
        <mxCell id="rrRRbhQIlmtl_uCbY6pl-1" value="&lt;i&gt;&lt;font face=&quot;Times New Roman&quot;&gt;N&lt;/font&gt;&lt;/i&gt;" style="rounded=0;whiteSpace=wrap;html=1;" vertex="1" parent="1">
          <mxGeometry x="140" y="60" width="60" height="40" as="geometry" />
        </mxCell>
        <mxCell id="rrRRbhQIlmtl_uCbY6pl-2" value="" style="endArrow=blockThin;html=1;rounded=0;endFill=1;entryX=0;entryY=0.25;entryDx=0;entryDy=0;" edge="1" parent="1" target="rrRRbhQIlmtl_uCbY6pl-1">
          <mxGeometry width="50" height="50" relative="1" as="geometry">
            <mxPoint x="100" y="70" as="sourcePoint" />
            <mxPoint x="210" y="100" as="targetPoint" />
          </mxGeometry>
        </mxCell>
        <mxCell id="rrRRbhQIlmtl_uCbY6pl-3" value="" style="endArrow=blockThin;html=1;rounded=0;endFill=1;entryX=0;entryY=0.75;entryDx=0;entryDy=0;exitX=0;exitY=0.5;exitDx=0;exitDy=0;" edge="1" parent="1" source="rrRRbhQIlmtl_uCbY6pl-11" target="rrRRbhQIlmtl_uCbY6pl-1">
          <mxGeometry width="50" height="50" relative="1" as="geometry">
            <mxPoint x="110" y="90" as="sourcePoint" />
            <mxPoint x="140" y="90" as="targetPoint" />
            <Array as="points">
              <mxPoint x="120" y="120" />
              <mxPoint x="120" y="90" />
            </Array>
          </mxGeometry>
        </mxCell>
        <mxCell id="rrRRbhQIlmtl_uCbY6pl-4" value="" style="endArrow=blockThin;html=1;rounded=0;endFill=1;" edge="1" parent="1">
          <mxGeometry width="50" height="50" relative="1" as="geometry">
            <mxPoint x="200" y="69.8" as="sourcePoint" />
            <mxPoint x="240" y="70" as="targetPoint" />
          </mxGeometry>
        </mxCell>
        <mxCell id="rrRRbhQIlmtl_uCbY6pl-5" value="" style="endArrow=blockThin;html=1;rounded=0;endFill=1;entryX=1;entryY=0.5;entryDx=0;entryDy=0;" edge="1" parent="1" target="rrRRbhQIlmtl_uCbY6pl-11">
          <mxGeometry width="50" height="50" relative="1" as="geometry">
            <mxPoint x="200" y="89.8" as="sourcePoint" />
            <mxPoint x="230" y="89.8" as="targetPoint" />
            <Array as="points">
              <mxPoint x="220" y="90" />
              <mxPoint x="220" y="120" />
            </Array>
          </mxGeometry>
        </mxCell>
        <mxCell id="rrRRbhQIlmtl_uCbY6pl-6" value="&lt;font style=&quot;font-size: 10px;&quot; face=&quot;Lucida Console&quot;&gt;x[n]&lt;/font&gt;" style="text;html=1;strokeColor=none;fillColor=none;align=right;verticalAlign=middle;whiteSpace=wrap;rounded=0;" vertex="1" parent="1">
          <mxGeometry x="50" y="60" width="50" height="20" as="geometry" />
        </mxCell>
        <mxCell id="rrRRbhQIlmtl_uCbY6pl-7" value="&lt;font style=&quot;font-size: 10px;&quot; face=&quot;Lucida Console&quot;&gt;y[n]&lt;/font&gt;" style="text;html=1;strokeColor=none;fillColor=none;align=left;verticalAlign=middle;whiteSpace=wrap;rounded=0;" vertex="1" parent="1">
          <mxGeometry x="240" y="60" width="40" height="20" as="geometry" />
        </mxCell>
        <mxCell id="rrRRbhQIlmtl_uCbY6pl-8" value="&lt;font style=&quot;font-size: 10px;&quot; face=&quot;Lucida Console&quot;&gt;u[n]&lt;/font&gt;" style="text;html=1;strokeColor=none;fillColor=none;align=right;verticalAlign=middle;whiteSpace=wrap;rounded=0;" vertex="1" parent="1">
          <mxGeometry x="60" y="100" width="50" height="20" as="geometry" />
        </mxCell>
        <mxCell id="rrRRbhQIlmtl_uCbY6pl-9" value="&lt;font style=&quot;font-size: 10px;&quot; face=&quot;Lucida Console&quot;&gt;u[n+1]&lt;/font&gt;" style="text;html=1;strokeColor=none;fillColor=none;align=left;verticalAlign=middle;whiteSpace=wrap;rounded=0;" vertex="1" parent="1">
          <mxGeometry x="230" y="100" width="40" height="20" as="geometry" />
        </mxCell>
        <mxCell id="rrRRbhQIlmtl_uCbY6pl-11" value="&lt;font style=&quot;&quot; face=&quot;Times New Roman&quot;&gt;T&lt;/font&gt;" style="rounded=0;whiteSpace=wrap;html=1;" vertex="1" parent="1">
          <mxGeometry x="160" y="110" width="20" height="20" as="geometry" />
        </mxCell>
        <mxCell id="rrRRbhQIlmtl_uCbY6pl-12" value="&lt;font face=&quot;Times New Roman&quot;&gt;Algorithm operations N, internal delay element&lt;/font&gt;" style="text;html=1;strokeColor=none;fillColor=none;align=left;verticalAlign=middle;whiteSpace=wrap;rounded=0;" vertex="1" parent="1">
          <mxGeometry x="60" y="10" width="190" height="30" as="geometry" />
        </mxCell>
        <mxCell id="rrRRbhQIlmtl_uCbY6pl-13" value="&lt;font face=&quot;Times New Roman&quot;&gt;next iteration&lt;/font&gt;" style="text;html=1;strokeColor=none;fillColor=none;align=left;verticalAlign=middle;whiteSpace=wrap;rounded=0;" vertex="1" parent="1">
          <mxGeometry x="60" y="150" width="190" height="30" as="geometry" />
        </mxCell>
        <mxCell id="rrRRbhQIlmtl_uCbY6pl-14" value="&lt;i&gt;&lt;font face=&quot;Times New Roman&quot;&gt;N&lt;/font&gt;&lt;/i&gt;" style="rounded=0;whiteSpace=wrap;html=1;" vertex="1" parent="1">
          <mxGeometry x="145" y="200" width="60" height="40" as="geometry" />
        </mxCell>
        <mxCell id="rrRRbhQIlmtl_uCbY6pl-15" value="" style="endArrow=blockThin;html=1;rounded=0;endFill=1;entryX=0;entryY=0.25;entryDx=0;entryDy=0;" edge="1" target="rrRRbhQIlmtl_uCbY6pl-14" parent="1">
          <mxGeometry width="50" height="50" relative="1" as="geometry">
            <mxPoint x="105" y="210" as="sourcePoint" />
            <mxPoint x="215" y="240" as="targetPoint" />
          </mxGeometry>
        </mxCell>
        <mxCell id="rrRRbhQIlmtl_uCbY6pl-16" value="" style="endArrow=blockThin;html=1;rounded=0;endFill=1;entryX=0;entryY=0.75;entryDx=0;entryDy=0;exitX=0;exitY=0.5;exitDx=0;exitDy=0;" edge="1" source="rrRRbhQIlmtl_uCbY6pl-23" target="rrRRbhQIlmtl_uCbY6pl-14" parent="1">
          <mxGeometry width="50" height="50" relative="1" as="geometry">
            <mxPoint x="115" y="230" as="sourcePoint" />
            <mxPoint x="145" y="230" as="targetPoint" />
            <Array as="points">
              <mxPoint x="125" y="260" />
              <mxPoint x="125" y="230" />
            </Array>
          </mxGeometry>
        </mxCell>
        <mxCell id="rrRRbhQIlmtl_uCbY6pl-17" value="" style="endArrow=blockThin;html=1;rounded=0;endFill=1;" edge="1" parent="1">
          <mxGeometry width="50" height="50" relative="1" as="geometry">
            <mxPoint x="205" y="209.8" as="sourcePoint" />
            <mxPoint x="245" y="210" as="targetPoint" />
          </mxGeometry>
        </mxCell>
        <mxCell id="rrRRbhQIlmtl_uCbY6pl-18" value="" style="endArrow=blockThin;html=1;rounded=0;endFill=1;entryX=1;entryY=0.5;entryDx=0;entryDy=0;" edge="1" target="rrRRbhQIlmtl_uCbY6pl-23" parent="1">
          <mxGeometry width="50" height="50" relative="1" as="geometry">
            <mxPoint x="205" y="229.8" as="sourcePoint" />
            <mxPoint x="235" y="229.8" as="targetPoint" />
            <Array as="points">
              <mxPoint x="225" y="230" />
              <mxPoint x="225" y="260" />
            </Array>
          </mxGeometry>
        </mxCell>
        <mxCell id="rrRRbhQIlmtl_uCbY6pl-19" value="&lt;font style=&quot;font-size: 10px;&quot; face=&quot;Lucida Console&quot;&gt;x[n+1]&lt;/font&gt;" style="text;html=1;strokeColor=none;fillColor=none;align=right;verticalAlign=middle;whiteSpace=wrap;rounded=0;" vertex="1" parent="1">
          <mxGeometry x="55" y="200" width="50" height="20" as="geometry" />
        </mxCell>
        <mxCell id="rrRRbhQIlmtl_uCbY6pl-20" value="&lt;font style=&quot;font-size: 10px;&quot; face=&quot;Lucida Console&quot;&gt;y[n+1]&lt;/font&gt;" style="text;html=1;strokeColor=none;fillColor=none;align=left;verticalAlign=middle;whiteSpace=wrap;rounded=0;" vertex="1" parent="1">
          <mxGeometry x="245" y="200" width="40" height="20" as="geometry" />
        </mxCell>
        <mxCell id="rrRRbhQIlmtl_uCbY6pl-21" value="&lt;font style=&quot;font-size: 10px;&quot; face=&quot;Lucida Console&quot;&gt;u[n+1]&lt;/font&gt;" style="text;html=1;strokeColor=none;fillColor=none;align=right;verticalAlign=middle;whiteSpace=wrap;rounded=0;" vertex="1" parent="1">
          <mxGeometry x="65" y="240" width="50" height="20" as="geometry" />
        </mxCell>
        <mxCell id="rrRRbhQIlmtl_uCbY6pl-22" value="&lt;font style=&quot;font-size: 10px;&quot; face=&quot;Lucida Console&quot;&gt;u[n+2]&lt;/font&gt;" style="text;html=1;strokeColor=none;fillColor=none;align=left;verticalAlign=middle;whiteSpace=wrap;rounded=0;" vertex="1" parent="1">
          <mxGeometry x="235" y="240" width="40" height="20" as="geometry" />
        </mxCell>
        <mxCell id="rrRRbhQIlmtl_uCbY6pl-23" value="&lt;font style=&quot;&quot; face=&quot;Times New Roman&quot;&gt;T&lt;/font&gt;" style="rounded=0;whiteSpace=wrap;html=1;" vertex="1" parent="1">
          <mxGeometry x="165" y="250" width="20" height="20" as="geometry" />
        </mxCell>
        <mxCell id="rrRRbhQIlmtl_uCbY6pl-24" value="" style="shape=curlyBracket;whiteSpace=wrap;html=1;rounded=1;flipH=1;labelPosition=right;verticalLabelPosition=middle;align=left;verticalAlign=middle;" vertex="1" parent="1">
          <mxGeometry x="300" y="60" width="20" height="210" as="geometry" />
        </mxCell>
        <mxCell id="rrRRbhQIlmtl_uCbY6pl-25" value="&lt;i&gt;&lt;font face=&quot;Times New Roman&quot;&gt;N&lt;sub&gt;0&lt;/sub&gt;&lt;/font&gt;&lt;/i&gt;" style="rounded=0;whiteSpace=wrap;html=1;" vertex="1" parent="1">
          <mxGeometry x="410" y="150" width="60" height="40" as="geometry" />
        </mxCell>
        <mxCell id="rrRRbhQIlmtl_uCbY6pl-26" value="&lt;i&gt;&lt;font face=&quot;Times New Roman&quot;&gt;N&lt;sub&gt;1&lt;/sub&gt;&lt;/font&gt;&lt;/i&gt;" style="rounded=0;whiteSpace=wrap;html=1;" vertex="1" parent="1">
          <mxGeometry x="620" y="150" width="60" height="40" as="geometry" />
        </mxCell>
        <mxCell id="rrRRbhQIlmtl_uCbY6pl-27" value="" style="endArrow=blockThin;html=1;rounded=0;endFill=1;entryX=0;entryY=0.75;entryDx=0;entryDy=0;" edge="1" parent="1" target="rrRRbhQIlmtl_uCbY6pl-26">
          <mxGeometry width="50" height="50" relative="1" as="geometry">
            <mxPoint x="470" y="180" as="sourcePoint" />
            <mxPoint x="510" y="180.2" as="targetPoint" />
          </mxGeometry>
        </mxCell>
        <mxCell id="rrRRbhQIlmtl_uCbY6pl-28" value="" style="endArrow=blockThin;html=1;rounded=0;endFill=1;entryX=1;entryY=0.5;entryDx=0;entryDy=0;exitX=1;exitY=0.75;exitDx=0;exitDy=0;" edge="1" parent="1" source="rrRRbhQIlmtl_uCbY6pl-26" target="rrRRbhQIlmtl_uCbY6pl-29">
          <mxGeometry width="50" height="50" relative="1" as="geometry">
            <mxPoint x="570" y="194.9" as="sourcePoint" />
            <mxPoint x="550" y="225.1" as="targetPoint" />
            <Array as="points">
              <mxPoint x="700" y="180" />
              <mxPoint x="700" y="220" />
            </Array>
          </mxGeometry>
        </mxCell>
        <mxCell id="rrRRbhQIlmtl_uCbY6pl-29" value="&lt;font style=&quot;&quot; face=&quot;Times New Roman&quot;&gt;T&lt;/font&gt;" style="rounded=0;whiteSpace=wrap;html=1;" vertex="1" parent="1">
          <mxGeometry x="530" y="210" width="20" height="20" as="geometry" />
        </mxCell>
        <mxCell id="rrRRbhQIlmtl_uCbY6pl-30" value="" style="endArrow=blockThin;html=1;rounded=0;endFill=1;entryX=0;entryY=0.75;entryDx=0;entryDy=0;exitX=0;exitY=0.5;exitDx=0;exitDy=0;" edge="1" parent="1" source="rrRRbhQIlmtl_uCbY6pl-29">
          <mxGeometry width="50" height="50" relative="1" as="geometry">
            <mxPoint x="430" y="210" as="sourcePoint" />
            <mxPoint x="410" y="180" as="targetPoint" />
            <Array as="points">
              <mxPoint x="390" y="220" />
              <mxPoint x="390" y="180" />
            </Array>
          </mxGeometry>
        </mxCell>
        <mxCell id="rrRRbhQIlmtl_uCbY6pl-32" value="&lt;font style=&quot;font-size: 10px;&quot; face=&quot;Lucida Console&quot;&gt;x[2n]&lt;/font&gt;" style="text;html=1;strokeColor=none;fillColor=none;align=right;verticalAlign=middle;whiteSpace=wrap;rounded=0;" vertex="1" parent="1">
          <mxGeometry x="320" y="150" width="50" height="20" as="geometry" />
        </mxCell>
        <mxCell id="rrRRbhQIlmtl_uCbY6pl-33" value="" style="endArrow=blockThin;html=1;rounded=0;endFill=1;entryX=0;entryY=0.25;entryDx=0;entryDy=0;" edge="1" parent="1">
          <mxGeometry width="50" height="50" relative="1" as="geometry">
            <mxPoint x="370" y="160" as="sourcePoint" />
            <mxPoint x="410" y="160" as="targetPoint" />
          </mxGeometry>
        </mxCell>
        <mxCell id="rrRRbhQIlmtl_uCbY6pl-34" value="" style="endArrow=blockThin;html=1;rounded=0;endFill=1;" edge="1" parent="1">
          <mxGeometry width="50" height="50" relative="1" as="geometry">
            <mxPoint x="680" y="159.8" as="sourcePoint" />
            <mxPoint x="720" y="160" as="targetPoint" />
          </mxGeometry>
        </mxCell>
        <mxCell id="rrRRbhQIlmtl_uCbY6pl-35" value="&lt;font style=&quot;font-size: 10px;&quot; face=&quot;Lucida Console&quot;&gt;y[2n+1]&lt;/font&gt;" style="text;html=1;strokeColor=none;fillColor=none;align=left;verticalAlign=middle;whiteSpace=wrap;rounded=0;" vertex="1" parent="1">
          <mxGeometry x="720" y="150" width="40" height="20" as="geometry" />
        </mxCell>
        <mxCell id="rrRRbhQIlmtl_uCbY6pl-36" value="" style="endArrow=blockThin;html=1;rounded=0;endFill=1;" edge="1" parent="1">
          <mxGeometry width="50" height="50" relative="1" as="geometry">
            <mxPoint x="470" y="159.8" as="sourcePoint" />
            <mxPoint x="490" y="160" as="targetPoint" />
          </mxGeometry>
        </mxCell>
        <mxCell id="rrRRbhQIlmtl_uCbY6pl-37" value="&lt;font style=&quot;font-size: 10px;&quot; face=&quot;Lucida Console&quot;&gt;y[2n]&lt;/font&gt;" style="text;html=1;strokeColor=none;fillColor=none;align=left;verticalAlign=middle;whiteSpace=wrap;rounded=0;" vertex="1" parent="1">
          <mxGeometry x="490" y="150" width="40" height="20" as="geometry" />
        </mxCell>
        <mxCell id="rrRRbhQIlmtl_uCbY6pl-39" value="&lt;font style=&quot;font-size: 10px;&quot; face=&quot;Lucida Console&quot;&gt;x[2n+1]&lt;/font&gt;" style="text;html=1;strokeColor=none;fillColor=none;align=right;verticalAlign=middle;whiteSpace=wrap;rounded=0;" vertex="1" parent="1">
          <mxGeometry x="550" y="150" width="50" height="20" as="geometry" />
        </mxCell>
        <mxCell id="rrRRbhQIlmtl_uCbY6pl-40" value="" style="endArrow=blockThin;html=1;rounded=0;endFill=1;entryX=0;entryY=0.25;entryDx=0;entryDy=0;" edge="1" parent="1">
          <mxGeometry width="50" height="50" relative="1" as="geometry">
            <mxPoint x="600" y="160" as="sourcePoint" />
            <mxPoint x="620" y="159.86" as="targetPoint" />
          </mxGeometry>
        </mxCell>
        <mxCell id="rrRRbhQIlmtl_uCbY6pl-42" value="&lt;font style=&quot;font-size: 10px;&quot; face=&quot;Lucida Console&quot;&gt;u[2n+1]&lt;/font&gt;" style="text;html=1;strokeColor=none;fillColor=none;align=right;verticalAlign=middle;whiteSpace=wrap;rounded=0;" vertex="1" parent="1">
          <mxGeometry x="515" y="180" width="50" height="20" as="geometry" />
        </mxCell>
        <mxCell id="rrRRbhQIlmtl_uCbY6pl-43" value="&lt;font style=&quot;font-size: 10px;&quot; face=&quot;Lucida Console&quot;&gt;u[2n]&lt;/font&gt;" style="text;html=1;strokeColor=none;fillColor=none;align=right;verticalAlign=middle;whiteSpace=wrap;rounded=0;" vertex="1" parent="1">
          <mxGeometry x="440" y="220" width="50" height="20" as="geometry" />
        </mxCell>
        <mxCell id="rrRRbhQIlmtl_uCbY6pl-45" value="&lt;font style=&quot;font-size: 10px;&quot; face=&quot;Lucida Console&quot;&gt;u[2n+2]&lt;/font&gt;" style="text;html=1;strokeColor=none;fillColor=none;align=right;verticalAlign=middle;whiteSpace=wrap;rounded=0;" vertex="1" parent="1">
          <mxGeometry x="590" y="220" width="50" height="20" as="geometry" />
        </mxCell>
        <mxCell id="rrRRbhQIlmtl_uCbY6pl-46" value="&lt;font style=&quot;&quot; face=&quot;Times New Roman&quot;&gt;T&lt;/font&gt;" style="rounded=0;whiteSpace=wrap;html=1;" vertex="1" parent="1">
          <mxGeometry x="120" y="390" width="20" height="20" as="geometry" />
        </mxCell>
        <mxCell id="rrRRbhQIlmtl_uCbY6pl-47" value="" style="verticalLabelPosition=bottom;shadow=0;dashed=0;align=center;html=1;verticalAlign=top;shape=mxgraph.electrical.abstract.sum;" vertex="1" parent="1">
          <mxGeometry x="120" y="510" width="20" height="20" as="geometry" />
        </mxCell>
        <mxCell id="rrRRbhQIlmtl_uCbY6pl-50" value="" style="endArrow=blockThin;html=1;rounded=0;endFill=1;entryX=0;entryY=0.25;entryDx=0;entryDy=0;" edge="1" parent="1">
          <mxGeometry width="50" height="50" relative="1" as="geometry">
            <mxPoint x="80" y="399.86" as="sourcePoint" />
            <mxPoint x="120" y="399.86" as="targetPoint" />
          </mxGeometry>
        </mxCell>
        <mxCell id="rrRRbhQIlmtl_uCbY6pl-51" value="&lt;font style=&quot;&quot; face=&quot;Times New Roman&quot;&gt;T&lt;/font&gt;" style="rounded=0;whiteSpace=wrap;html=1;" vertex="1" parent="1">
          <mxGeometry x="190" y="390" width="20" height="20" as="geometry" />
        </mxCell>
        <mxCell id="rrRRbhQIlmtl_uCbY6pl-53" value="" style="endArrow=blockThin;html=1;rounded=0;endFill=1;entryX=0;entryY=0.5;entryDx=0;entryDy=0;" edge="1" parent="1" target="rrRRbhQIlmtl_uCbY6pl-51">
          <mxGeometry width="50" height="50" relative="1" as="geometry">
            <mxPoint x="140" y="399.86" as="sourcePoint" />
            <mxPoint x="180" y="399.86" as="targetPoint" />
          </mxGeometry>
        </mxCell>
        <mxCell id="rrRRbhQIlmtl_uCbY6pl-55" value="&lt;font style=&quot;&quot; face=&quot;Times New Roman&quot;&gt;T&lt;/font&gt;" style="rounded=0;whiteSpace=wrap;html=1;" vertex="1" parent="1">
          <mxGeometry x="190" y="450" width="20" height="20" as="geometry" />
        </mxCell>
        <mxCell id="rrRRbhQIlmtl_uCbY6pl-57" value="" style="endArrow=blockThin;html=1;rounded=0;endFill=1;entryX=0;entryY=0.25;entryDx=0;entryDy=0;exitX=0;exitY=0.5;exitDx=0;exitDy=0;" edge="1" parent="1" source="rrRRbhQIlmtl_uCbY6pl-55">
          <mxGeometry width="50" height="50" relative="1" as="geometry">
            <mxPoint x="180" y="460" as="sourcePoint" />
            <mxPoint x="140" y="459.86" as="targetPoint" />
          </mxGeometry>
        </mxCell>
        <mxCell id="rrRRbhQIlmtl_uCbY6pl-60" value="" style="endArrow=blockThin;html=1;rounded=0;endFill=1;entryX=0.084;entryY=0.161;entryDx=0;entryDy=0;entryPerimeter=0;startArrow=oval;startFill=1;startSize=3;" edge="1" parent="1" target="rrRRbhQIlmtl_uCbY6pl-47">
          <mxGeometry width="50" height="50" relative="1" as="geometry">
            <mxPoint x="100" y="400" as="sourcePoint" />
            <mxPoint x="190" y="409.86" as="targetPoint" />
            <Array as="points">
              <mxPoint x="100" y="500" />
            </Array>
          </mxGeometry>
        </mxCell>
        <mxCell id="rrRRbhQIlmtl_uCbY6pl-61" value="" style="endArrow=blockThin;html=1;rounded=0;endFill=1;entryX=0.902;entryY=0.117;entryDx=0;entryDy=0;entryPerimeter=0;startArrow=oval;startFill=1;startSize=3;" edge="1" parent="1" target="rrRRbhQIlmtl_uCbY6pl-47">
          <mxGeometry width="50" height="50" relative="1" as="geometry">
            <mxPoint x="160" y="460" as="sourcePoint" />
            <mxPoint x="132" y="503" as="targetPoint" />
            <Array as="points">
              <mxPoint x="160" y="500" />
            </Array>
          </mxGeometry>
        </mxCell>
        <mxCell id="rrRRbhQIlmtl_uCbY6pl-62" value="&lt;font style=&quot;&quot; face=&quot;Times New Roman&quot;&gt;T&lt;/font&gt;" style="rounded=0;whiteSpace=wrap;html=1;" vertex="1" parent="1">
          <mxGeometry x="260" y="390" width="20" height="20" as="geometry" />
        </mxCell>
        <mxCell id="rrRRbhQIlmtl_uCbY6pl-63" value="" style="endArrow=blockThin;html=1;rounded=0;endFill=1;entryX=0;entryY=0.5;entryDx=0;entryDy=0;" edge="1" parent="1" target="rrRRbhQIlmtl_uCbY6pl-62">
          <mxGeometry width="50" height="50" relative="1" as="geometry">
            <mxPoint x="210" y="399.86" as="sourcePoint" />
            <mxPoint x="250" y="399.86" as="targetPoint" />
          </mxGeometry>
        </mxCell>
        <mxCell id="rrRRbhQIlmtl_uCbY6pl-64" value="&lt;font style=&quot;&quot; face=&quot;Times New Roman&quot;&gt;T&lt;/font&gt;" style="rounded=0;whiteSpace=wrap;html=1;" vertex="1" parent="1">
          <mxGeometry x="260" y="450" width="20" height="20" as="geometry" />
        </mxCell>
        <mxCell id="rrRRbhQIlmtl_uCbY6pl-65" value="" style="endArrow=blockThin;html=1;rounded=0;endFill=1;entryX=0;entryY=0.25;entryDx=0;entryDy=0;exitX=0;exitY=0.5;exitDx=0;exitDy=0;" edge="1" parent="1" source="rrRRbhQIlmtl_uCbY6pl-64">
          <mxGeometry width="50" height="50" relative="1" as="geometry">
            <mxPoint x="250" y="460" as="sourcePoint" />
            <mxPoint x="210" y="459.86" as="targetPoint" />
          </mxGeometry>
        </mxCell>
        <mxCell id="rrRRbhQIlmtl_uCbY6pl-67" value="" style="verticalLabelPosition=bottom;shadow=0;dashed=0;align=center;html=1;verticalAlign=top;shape=mxgraph.electrical.abstract.sum;" vertex="1" parent="1">
          <mxGeometry x="190" y="510" width="20" height="20" as="geometry" />
        </mxCell>
        <mxCell id="rrRRbhQIlmtl_uCbY6pl-68" value="" style="endArrow=blockThin;html=1;rounded=0;endFill=1;entryX=0.084;entryY=0.161;entryDx=0;entryDy=0;entryPerimeter=0;startArrow=oval;startFill=1;startSize=3;" edge="1" target="rrRRbhQIlmtl_uCbY6pl-67" parent="1">
          <mxGeometry width="50" height="50" relative="1" as="geometry">
            <mxPoint x="170" y="400" as="sourcePoint" />
            <mxPoint x="260" y="409.86" as="targetPoint" />
            <Array as="points">
              <mxPoint x="170" y="500" />
            </Array>
          </mxGeometry>
        </mxCell>
        <mxCell id="rrRRbhQIlmtl_uCbY6pl-69" value="" style="endArrow=blockThin;html=1;rounded=0;endFill=1;entryX=0.902;entryY=0.117;entryDx=0;entryDy=0;entryPerimeter=0;startArrow=oval;startFill=1;startSize=3;" edge="1" target="rrRRbhQIlmtl_uCbY6pl-67" parent="1">
          <mxGeometry width="50" height="50" relative="1" as="geometry">
            <mxPoint x="230" y="460" as="sourcePoint" />
            <mxPoint x="202" y="503" as="targetPoint" />
            <Array as="points">
              <mxPoint x="230" y="500" />
            </Array>
          </mxGeometry>
        </mxCell>
        <mxCell id="rrRRbhQIlmtl_uCbY6pl-70" value="" style="verticalLabelPosition=bottom;shadow=0;dashed=0;align=center;html=1;verticalAlign=top;shape=mxgraph.electrical.abstract.sum;" vertex="1" parent="1">
          <mxGeometry x="260" y="510" width="20" height="20" as="geometry" />
        </mxCell>
        <mxCell id="rrRRbhQIlmtl_uCbY6pl-71" value="" style="endArrow=blockThin;html=1;rounded=0;endFill=1;entryX=0.902;entryY=0.117;entryDx=0;entryDy=0;entryPerimeter=0;startArrow=oval;startFill=1;startSize=3;" edge="1" target="rrRRbhQIlmtl_uCbY6pl-70" parent="1">
          <mxGeometry width="50" height="50" relative="1" as="geometry">
            <mxPoint x="300" y="460" as="sourcePoint" />
            <mxPoint x="272" y="503" as="targetPoint" />
            <Array as="points">
              <mxPoint x="300" y="500" />
            </Array>
          </mxGeometry>
        </mxCell>
        <mxCell id="rrRRbhQIlmtl_uCbY6pl-72" value="" style="endArrow=blockThin;html=1;rounded=0;endFill=1;entryX=0.084;entryY=0.161;entryDx=0;entryDy=0;entryPerimeter=0;startArrow=oval;startFill=1;startSize=3;" edge="1" target="rrRRbhQIlmtl_uCbY6pl-70" parent="1">
          <mxGeometry width="50" height="50" relative="1" as="geometry">
            <mxPoint x="240" y="400" as="sourcePoint" />
            <mxPoint x="330" y="409.86" as="targetPoint" />
            <Array as="points">
              <mxPoint x="240" y="500" />
            </Array>
          </mxGeometry>
        </mxCell>
        <mxCell id="rrRRbhQIlmtl_uCbY6pl-73" value="" style="endArrow=blockThin;html=1;rounded=0;endFill=1;entryX=1;entryY=0.5;entryDx=0;entryDy=0;exitX=1;exitY=0.5;exitDx=0;exitDy=0;" edge="1" parent="1" source="rrRRbhQIlmtl_uCbY6pl-62" target="rrRRbhQIlmtl_uCbY6pl-64">
          <mxGeometry width="50" height="50" relative="1" as="geometry">
            <mxPoint x="300" y="409.77000000000004" as="sourcePoint" />
            <mxPoint x="350" y="409.91" as="targetPoint" />
            <Array as="points">
              <mxPoint x="300" y="400" />
              <mxPoint x="300" y="460" />
            </Array>
          </mxGeometry>
        </mxCell>
        <mxCell id="rrRRbhQIlmtl_uCbY6pl-74" value="" style="triangle;whiteSpace=wrap;html=1;direction=south;" vertex="1" parent="1">
          <mxGeometry x="120" y="550" width="20" height="20" as="geometry" />
        </mxCell>
        <mxCell id="rrRRbhQIlmtl_uCbY6pl-75" value="" style="triangle;whiteSpace=wrap;html=1;direction=south;" vertex="1" parent="1">
          <mxGeometry x="190" y="550" width="20" height="20" as="geometry" />
        </mxCell>
        <mxCell id="rrRRbhQIlmtl_uCbY6pl-76" value="" style="triangle;whiteSpace=wrap;html=1;direction=south;" vertex="1" parent="1">
          <mxGeometry x="260" y="550" width="20" height="20" as="geometry" />
        </mxCell>
        <mxCell id="rrRRbhQIlmtl_uCbY6pl-77" value="" style="endArrow=blockThin;html=1;rounded=0;endFill=1;entryX=0;entryY=0.5;entryDx=0;entryDy=0;exitX=0.5;exitY=1;exitDx=0;exitDy=0;exitPerimeter=0;" edge="1" parent="1" source="rrRRbhQIlmtl_uCbY6pl-47" target="rrRRbhQIlmtl_uCbY6pl-74">
          <mxGeometry width="50" height="50" relative="1" as="geometry">
            <mxPoint x="90" y="429.86" as="sourcePoint" />
            <mxPoint x="130" y="429.86" as="targetPoint" />
          </mxGeometry>
        </mxCell>
        <mxCell id="rrRRbhQIlmtl_uCbY6pl-78" value="" style="endArrow=blockThin;html=1;rounded=0;endFill=1;entryX=0;entryY=0.5;entryDx=0;entryDy=0;exitX=0.5;exitY=1;exitDx=0;exitDy=0;exitPerimeter=0;" edge="1" parent="1" source="rrRRbhQIlmtl_uCbY6pl-67" target="rrRRbhQIlmtl_uCbY6pl-75">
          <mxGeometry width="50" height="50" relative="1" as="geometry">
            <mxPoint x="140" y="540" as="sourcePoint" />
            <mxPoint x="140" y="560" as="targetPoint" />
          </mxGeometry>
        </mxCell>
        <mxCell id="rrRRbhQIlmtl_uCbY6pl-79" value="" style="endArrow=blockThin;html=1;rounded=0;endFill=1;entryX=0;entryY=0.5;entryDx=0;entryDy=0;exitX=0.5;exitY=1;exitDx=0;exitDy=0;exitPerimeter=0;" edge="1" parent="1">
          <mxGeometry width="50" height="50" relative="1" as="geometry">
            <mxPoint x="269.88" y="530" as="sourcePoint" />
            <mxPoint x="269.88" y="550" as="targetPoint" />
          </mxGeometry>
        </mxCell>
        <mxCell id="rrRRbhQIlmtl_uCbY6pl-81" value="&lt;font style=&quot;font-size: 10px;&quot; face=&quot;Lucida Console&quot;&gt;x[n]&lt;/font&gt;" style="text;html=1;strokeColor=none;fillColor=none;align=right;verticalAlign=middle;whiteSpace=wrap;rounded=0;" vertex="1" parent="1">
          <mxGeometry x="30" y="390" width="50" height="20" as="geometry" />
        </mxCell>
        <mxCell id="rrRRbhQIlmtl_uCbY6pl-82" value="" style="verticalLabelPosition=bottom;shadow=0;dashed=0;align=center;html=1;verticalAlign=top;shape=mxgraph.electrical.abstract.sum;" vertex="1" parent="1">
          <mxGeometry x="190" y="590" width="20" height="20" as="geometry" />
        </mxCell>
        <mxCell id="rrRRbhQIlmtl_uCbY6pl-83" value="" style="endArrow=blockThin;html=1;rounded=0;endFill=1;entryX=0.5;entryY=0;entryDx=0;entryDy=0;exitX=1;exitY=0.5;exitDx=0;exitDy=0;entryPerimeter=0;" edge="1" parent="1" source="rrRRbhQIlmtl_uCbY6pl-75" target="rrRRbhQIlmtl_uCbY6pl-82">
          <mxGeometry width="50" height="50" relative="1" as="geometry">
            <mxPoint x="140" y="540" as="sourcePoint" />
            <mxPoint x="140" y="560" as="targetPoint" />
          </mxGeometry>
        </mxCell>
        <mxCell id="rrRRbhQIlmtl_uCbY6pl-84" value="" style="endArrow=blockThin;html=1;rounded=0;endFill=1;entryX=1;entryY=0.5;entryDx=0;entryDy=0;exitX=1;exitY=0.5;exitDx=0;exitDy=0;entryPerimeter=0;" edge="1" parent="1" source="rrRRbhQIlmtl_uCbY6pl-76" target="rrRRbhQIlmtl_uCbY6pl-82">
          <mxGeometry width="50" height="50" relative="1" as="geometry">
            <mxPoint x="210" y="580" as="sourcePoint" />
            <mxPoint x="210" y="610" as="targetPoint" />
            <Array as="points">
              <mxPoint x="270" y="600" />
            </Array>
          </mxGeometry>
        </mxCell>
        <mxCell id="rrRRbhQIlmtl_uCbY6pl-85" value="" style="endArrow=blockThin;html=1;rounded=0;endFill=1;entryX=0;entryY=0.5;entryDx=0;entryDy=0;exitX=1.133;exitY=0.45;exitDx=0;exitDy=0;entryPerimeter=0;exitPerimeter=0;" edge="1" parent="1" source="rrRRbhQIlmtl_uCbY6pl-74" target="rrRRbhQIlmtl_uCbY6pl-82">
          <mxGeometry width="50" height="50" relative="1" as="geometry">
            <mxPoint x="220" y="590" as="sourcePoint" />
            <mxPoint x="220" y="620" as="targetPoint" />
            <Array as="points">
              <mxPoint x="130" y="600" />
            </Array>
          </mxGeometry>
        </mxCell>
        <mxCell id="rrRRbhQIlmtl_uCbY6pl-86" value="" style="endArrow=blockThin;html=1;rounded=0;endFill=1;entryX=0.5;entryY=0;entryDx=0;entryDy=0;exitX=1;exitY=0.5;exitDx=0;exitDy=0;entryPerimeter=0;" edge="1" parent="1">
          <mxGeometry width="50" height="50" relative="1" as="geometry">
            <mxPoint x="200" y="610" as="sourcePoint" />
            <mxPoint x="200" y="630" as="targetPoint" />
          </mxGeometry>
        </mxCell>
        <mxCell id="rrRRbhQIlmtl_uCbY6pl-87" value="&lt;font style=&quot;font-size: 10px;&quot; face=&quot;Lucida Console&quot;&gt;y[n]&lt;/font&gt;" style="text;html=1;strokeColor=none;fillColor=none;align=right;verticalAlign=middle;whiteSpace=wrap;rounded=0;" vertex="1" parent="1">
          <mxGeometry x="180" y="630" width="35" height="20" as="geometry" />
        </mxCell>
        <mxCell id="rrRRbhQIlmtl_uCbY6pl-88" value="&lt;font style=&quot;font-size: 6px;&quot; face=&quot;Lucida Console&quot;&gt;v[n]&lt;/font&gt;" style="text;html=1;strokeColor=none;fillColor=none;align=right;verticalAlign=middle;whiteSpace=wrap;rounded=0;" vertex="1" parent="1">
          <mxGeometry x="165" y="480" width="30" height="20" as="geometry" />
        </mxCell>
        <mxCell id="rrRRbhQIlmtl_uCbY6pl-90" value="&lt;font style=&quot;font-size: 6px;&quot; face=&quot;Lucida Console&quot;&gt;u[n]&lt;/font&gt;" style="text;html=1;strokeColor=none;fillColor=none;align=right;verticalAlign=middle;whiteSpace=wrap;rounded=0;" vertex="1" parent="1">
          <mxGeometry x="130" y="480" width="30" height="20" as="geometry" />
        </mxCell>
        <mxCell id="rrRRbhQIlmtl_uCbY6pl-91" value="&lt;font style=&quot;font-size: 6px;&quot; face=&quot;Lucida Console&quot;&gt;w[n]&lt;/font&gt;" style="text;html=1;strokeColor=none;fillColor=none;align=right;verticalAlign=middle;whiteSpace=wrap;rounded=0;" vertex="1" parent="1">
          <mxGeometry x="200" y="480" width="30" height="20" as="geometry" />
        </mxCell>
        <mxCell id="rrRRbhQIlmtl_uCbY6pl-92" value="&lt;font style=&quot;font-size: 6px;&quot; face=&quot;Lucida Console&quot;&gt;h[n]&lt;/font&gt;" style="text;html=1;strokeColor=none;fillColor=none;align=right;verticalAlign=middle;whiteSpace=wrap;rounded=0;" vertex="1" parent="1">
          <mxGeometry x="235" y="480" width="30" height="20" as="geometry" />
        </mxCell>
        <mxCell id="rrRRbhQIlmtl_uCbY6pl-93" value="&lt;font style=&quot;font-size: 6px;&quot; face=&quot;Lucida Console&quot;&gt;k[n]&lt;/font&gt;" style="text;html=1;strokeColor=none;fillColor=none;align=right;verticalAlign=middle;whiteSpace=wrap;rounded=0;" vertex="1" parent="1">
          <mxGeometry x="270" y="480" width="30" height="20" as="geometry" />
        </mxCell>
        <mxCell id="rrRRbhQIlmtl_uCbY6pl-94" value="&lt;i&gt;&lt;font face=&quot;Times New Roman&quot;&gt;FIR&lt;/font&gt;&lt;/i&gt;" style="rounded=0;whiteSpace=wrap;html=1;" vertex="1" parent="1">
          <mxGeometry x="520" y="380" width="60" height="90" as="geometry" />
        </mxCell>
        <mxCell id="rrRRbhQIlmtl_uCbY6pl-95" value="" style="endArrow=blockThin;html=1;rounded=0;endFill=1;entryX=0;entryY=0.25;entryDx=0;entryDy=0;" edge="1" parent="1">
          <mxGeometry width="50" height="50" relative="1" as="geometry">
            <mxPoint x="480" y="389.86" as="sourcePoint" />
            <mxPoint x="520" y="389.86" as="targetPoint" />
          </mxGeometry>
        </mxCell>
        <mxCell id="rrRRbhQIlmtl_uCbY6pl-96" value="&lt;font style=&quot;font-size: 10px;&quot; face=&quot;Lucida Console&quot;&gt;x[n]&lt;/font&gt;" style="text;html=1;strokeColor=none;fillColor=none;align=right;verticalAlign=middle;whiteSpace=wrap;rounded=0;" vertex="1" parent="1">
          <mxGeometry x="430" y="380" width="50" height="20" as="geometry" />
        </mxCell>
        <mxCell id="rrRRbhQIlmtl_uCbY6pl-97" value="&lt;font style=&quot;&quot; face=&quot;Times New Roman&quot;&gt;5T&lt;/font&gt;" style="rounded=0;whiteSpace=wrap;html=1;" vertex="1" parent="1">
          <mxGeometry x="540" y="480" width="20" height="20" as="geometry" />
        </mxCell>
        <mxCell id="rrRRbhQIlmtl_uCbY6pl-98" value="" style="endArrow=blockThin;html=1;rounded=0;endFill=1;entryX=0;entryY=0.75;entryDx=0;entryDy=0;exitX=0;exitY=0.5;exitDx=0;exitDy=0;" edge="1" parent="1">
          <mxGeometry width="50" height="50" relative="1" as="geometry">
            <mxPoint x="540" y="490" as="sourcePoint" />
            <mxPoint x="520" y="460" as="targetPoint" />
            <Array as="points">
              <mxPoint x="500" y="490" />
              <mxPoint x="500" y="460" />
            </Array>
          </mxGeometry>
        </mxCell>
        <mxCell id="rrRRbhQIlmtl_uCbY6pl-99" value="&lt;font style=&quot;font-size: 6px;&quot; face=&quot;Lucida Console&quot;&gt;u[n]&lt;/font&gt;" style="text;html=1;strokeColor=none;fillColor=none;align=right;verticalAlign=middle;whiteSpace=wrap;rounded=0;" vertex="1" parent="1">
          <mxGeometry x="500" y="470" width="30" height="20" as="geometry" />
        </mxCell>
        <mxCell id="rrRRbhQIlmtl_uCbY6pl-100" value="&lt;font style=&quot;&quot; face=&quot;Times New Roman&quot;&gt;4T&lt;/font&gt;" style="rounded=0;whiteSpace=wrap;html=1;" vertex="1" parent="1">
          <mxGeometry x="540" y="510" width="20" height="20" as="geometry" />
        </mxCell>
        <mxCell id="rrRRbhQIlmtl_uCbY6pl-101" value="" style="endArrow=blockThin;html=1;rounded=0;endFill=1;exitX=0;exitY=0.5;exitDx=0;exitDy=0;" edge="1" parent="1">
          <mxGeometry width="50" height="50" relative="1" as="geometry">
            <mxPoint x="540" y="520" as="sourcePoint" />
            <mxPoint x="520" y="450" as="targetPoint" />
            <Array as="points">
              <mxPoint x="490" y="520" />
              <mxPoint x="490" y="450" />
            </Array>
          </mxGeometry>
        </mxCell>
        <mxCell id="rrRRbhQIlmtl_uCbY6pl-102" value="&lt;font style=&quot;font-size: 6px;&quot; face=&quot;Lucida Console&quot;&gt;w[n]&lt;/font&gt;" style="text;html=1;strokeColor=none;fillColor=none;align=right;verticalAlign=middle;whiteSpace=wrap;rounded=0;" vertex="1" parent="1">
          <mxGeometry x="500" y="500" width="30" height="20" as="geometry" />
        </mxCell>
        <mxCell id="rrRRbhQIlmtl_uCbY6pl-103" value="&lt;font style=&quot;&quot; face=&quot;Times New Roman&quot;&gt;3T&lt;/font&gt;" style="rounded=0;whiteSpace=wrap;html=1;" vertex="1" parent="1">
          <mxGeometry x="540" y="540" width="20" height="20" as="geometry" />
        </mxCell>
        <mxCell id="rrRRbhQIlmtl_uCbY6pl-104" value="&lt;font style=&quot;&quot; face=&quot;Times New Roman&quot;&gt;2T&lt;/font&gt;" style="rounded=0;whiteSpace=wrap;html=1;" vertex="1" parent="1">
          <mxGeometry x="540" y="570" width="20" height="20" as="geometry" />
        </mxCell>
        <mxCell id="rrRRbhQIlmtl_uCbY6pl-105" value="&lt;font style=&quot;&quot; face=&quot;Times New Roman&quot;&gt;T&lt;/font&gt;" style="rounded=0;whiteSpace=wrap;html=1;" vertex="1" parent="1">
          <mxGeometry x="540" y="600" width="20" height="20" as="geometry" />
        </mxCell>
        <mxCell id="rrRRbhQIlmtl_uCbY6pl-106" value="" style="endArrow=blockThin;html=1;rounded=0;endFill=1;exitX=0;exitY=0.5;exitDx=0;exitDy=0;" edge="1" parent="1">
          <mxGeometry width="50" height="50" relative="1" as="geometry">
            <mxPoint x="540" y="550" as="sourcePoint" />
            <mxPoint x="520" y="440" as="targetPoint" />
            <Array as="points">
              <mxPoint x="480" y="550" />
              <mxPoint x="480" y="440" />
            </Array>
          </mxGeometry>
        </mxCell>
        <mxCell id="rrRRbhQIlmtl_uCbY6pl-107" value="" style="endArrow=blockThin;html=1;rounded=0;endFill=1;exitX=0;exitY=0.5;exitDx=0;exitDy=0;" edge="1" parent="1">
          <mxGeometry width="50" height="50" relative="1" as="geometry">
            <mxPoint x="540" y="580" as="sourcePoint" />
            <mxPoint x="520" y="430" as="targetPoint" />
            <Array as="points">
              <mxPoint x="470" y="580" />
              <mxPoint x="470" y="430" />
            </Array>
          </mxGeometry>
        </mxCell>
        <mxCell id="rrRRbhQIlmtl_uCbY6pl-108" value="" style="endArrow=blockThin;html=1;rounded=0;endFill=1;exitX=0;exitY=0.5;exitDx=0;exitDy=0;" edge="1" parent="1">
          <mxGeometry width="50" height="50" relative="1" as="geometry">
            <mxPoint x="540" y="610" as="sourcePoint" />
            <mxPoint x="520" y="420" as="targetPoint" />
            <Array as="points">
              <mxPoint x="460" y="610" />
              <mxPoint x="460" y="420" />
            </Array>
          </mxGeometry>
        </mxCell>
        <mxCell id="rrRRbhQIlmtl_uCbY6pl-109" value="&lt;font style=&quot;font-size: 6px;&quot; face=&quot;Lucida Console&quot;&gt;k[n]&lt;/font&gt;" style="text;html=1;strokeColor=none;fillColor=none;align=right;verticalAlign=middle;whiteSpace=wrap;rounded=0;" vertex="1" parent="1">
          <mxGeometry x="500" y="530" width="30" height="20" as="geometry" />
        </mxCell>
        <mxCell id="rrRRbhQIlmtl_uCbY6pl-110" value="&lt;font style=&quot;font-size: 6px;&quot; face=&quot;Lucida Console&quot;&gt;h[n]&lt;/font&gt;" style="text;html=1;strokeColor=none;fillColor=none;align=right;verticalAlign=middle;whiteSpace=wrap;rounded=0;" vertex="1" parent="1">
          <mxGeometry x="500" y="560" width="30" height="20" as="geometry" />
        </mxCell>
        <mxCell id="rrRRbhQIlmtl_uCbY6pl-111" value="&lt;font style=&quot;font-size: 6px;&quot; face=&quot;Lucida Console&quot;&gt;v[n]&lt;/font&gt;" style="text;html=1;strokeColor=none;fillColor=none;align=right;verticalAlign=middle;whiteSpace=wrap;rounded=0;" vertex="1" parent="1">
          <mxGeometry x="500" y="590" width="30" height="20" as="geometry" />
        </mxCell>
        <mxCell id="rrRRbhQIlmtl_uCbY6pl-112" value="" style="endArrow=blockThin;html=1;rounded=0;endFill=1;entryX=1;entryY=0.5;entryDx=0;entryDy=0;" edge="1" parent="1">
          <mxGeometry width="50" height="50" relative="1" as="geometry">
            <mxPoint x="580" y="459.8" as="sourcePoint" />
            <mxPoint x="560" y="490" as="targetPoint" />
            <Array as="points">
              <mxPoint x="600" y="460" />
              <mxPoint x="600" y="490" />
            </Array>
          </mxGeometry>
        </mxCell>
        <mxCell id="rrRRbhQIlmtl_uCbY6pl-113" value="" style="endArrow=blockThin;html=1;rounded=0;endFill=1;entryX=1;entryY=0.5;entryDx=0;entryDy=0;" edge="1" parent="1">
          <mxGeometry width="50" height="50" relative="1" as="geometry">
            <mxPoint x="580" y="450" as="sourcePoint" />
            <mxPoint x="560" y="520" as="targetPoint" />
            <Array as="points">
              <mxPoint x="610" y="450" />
              <mxPoint x="610" y="520" />
            </Array>
          </mxGeometry>
        </mxCell>
        <mxCell id="rrRRbhQIlmtl_uCbY6pl-115" value="" style="endArrow=blockThin;html=1;rounded=0;endFill=1;entryX=1;entryY=0.5;entryDx=0;entryDy=0;" edge="1" parent="1" target="rrRRbhQIlmtl_uCbY6pl-103">
          <mxGeometry width="50" height="50" relative="1" as="geometry">
            <mxPoint x="580" y="440" as="sourcePoint" />
            <mxPoint x="570" y="530" as="targetPoint" />
            <Array as="points">
              <mxPoint x="620" y="440" />
              <mxPoint x="620" y="550" />
            </Array>
          </mxGeometry>
        </mxCell>
        <mxCell id="rrRRbhQIlmtl_uCbY6pl-116" value="" style="endArrow=blockThin;html=1;rounded=0;endFill=1;entryX=1;entryY=0.5;entryDx=0;entryDy=0;" edge="1" parent="1" target="rrRRbhQIlmtl_uCbY6pl-104">
          <mxGeometry width="50" height="50" relative="1" as="geometry">
            <mxPoint x="580" y="430" as="sourcePoint" />
            <mxPoint x="570" y="560" as="targetPoint" />
            <Array as="points">
              <mxPoint x="630" y="430" />
              <mxPoint x="630" y="580" />
            </Array>
          </mxGeometry>
        </mxCell>
        <mxCell id="rrRRbhQIlmtl_uCbY6pl-117" value="" style="endArrow=blockThin;html=1;rounded=0;endFill=1;entryX=1;entryY=0.5;entryDx=0;entryDy=0;" edge="1" parent="1" target="rrRRbhQIlmtl_uCbY6pl-105">
          <mxGeometry width="50" height="50" relative="1" as="geometry">
            <mxPoint x="580" y="420" as="sourcePoint" />
            <mxPoint x="570" y="590" as="targetPoint" />
            <Array as="points">
              <mxPoint x="640" y="420" />
              <mxPoint x="640" y="610" />
            </Array>
          </mxGeometry>
        </mxCell>
        <mxCell id="rrRRbhQIlmtl_uCbY6pl-119" value="" style="endArrow=blockThin;html=1;rounded=0;endFill=1;" edge="1" parent="1">
          <mxGeometry width="50" height="50" relative="1" as="geometry">
            <mxPoint x="580" y="389.8" as="sourcePoint" />
            <mxPoint x="620" y="390" as="targetPoint" />
          </mxGeometry>
        </mxCell>
        <mxCell id="rrRRbhQIlmtl_uCbY6pl-120" value="&lt;font style=&quot;font-size: 10px;&quot; face=&quot;Lucida Console&quot;&gt;y[n]&lt;/font&gt;" style="text;html=1;strokeColor=none;fillColor=none;align=left;verticalAlign=middle;whiteSpace=wrap;rounded=0;" vertex="1" parent="1">
          <mxGeometry x="620" y="380" width="40" height="20" as="geometry" />
        </mxCell>
        <mxCell id="rrRRbhQIlmtl_uCbY6pl-121" value="&lt;b&gt;Systematic Equations&lt;/b&gt;" style="text;html=1;strokeColor=none;fillColor=none;align=left;verticalAlign=middle;whiteSpace=wrap;rounded=0;" vertex="1" parent="1">
          <mxGeometry x="40" y="700" width="160" height="20" as="geometry" />
        </mxCell>
        <mxCell id="rrRRbhQIlmtl_uCbY6pl-122" value="&lt;font face=&quot;Times New Roman&quot;&gt;&lt;i&gt;M&lt;/i&gt; blocks denoted &lt;i&gt;N&lt;sub&gt;i&lt;/sub&gt;&lt;/i&gt;&lt;/font&gt;" style="text;html=1;strokeColor=none;fillColor=none;align=left;verticalAlign=middle;whiteSpace=wrap;rounded=0;" vertex="1" parent="1">
          <mxGeometry x="55" y="750" width="125" height="20" as="geometry" />
        </mxCell>
        <mxCell id="rrRRbhQIlmtl_uCbY6pl-123" value="&lt;font face=&quot;Times New Roman&quot;&gt;Unfolding by a factor of &lt;i&gt;M&lt;/i&gt;. Therefore &lt;i&gt;M&lt;/i&gt; polyphases.&lt;/font&gt;" style="text;html=1;strokeColor=none;fillColor=none;align=left;verticalAlign=middle;whiteSpace=wrap;rounded=0;" vertex="1" parent="1">
          <mxGeometry x="55" y="730" width="285" height="20" as="geometry" />
        </mxCell>
        <mxCell id="rrRRbhQIlmtl_uCbY6pl-124" value="&lt;font face=&quot;Times New Roman&quot;&gt;&lt;i&gt;i&lt;/i&gt; in range 0,1 ... &lt;i&gt;M&lt;/i&gt;-1&lt;/font&gt;" style="text;html=1;strokeColor=none;fillColor=none;align=left;verticalAlign=middle;whiteSpace=wrap;rounded=0;" vertex="1" parent="1">
          <mxGeometry x="55" y="770" width="125" height="20" as="geometry" />
        </mxCell>
        <mxCell id="rrRRbhQIlmtl_uCbY6pl-125" value="&lt;font face=&quot;Times New Roman&quot;&gt;input samples of block&amp;nbsp;&lt;/font&gt;&lt;i style=&quot;border-color: var(--border-color); font-family: &amp;quot;Times New Roman&amp;quot;;&quot;&gt;N&lt;sub style=&quot;border-color: var(--border-color);&quot;&gt;i&amp;nbsp;&lt;/sub&gt;&lt;/i&gt;&lt;font face=&quot;Times New Roman&quot;&gt;are &lt;/font&gt;&lt;font face=&quot;Lucida Console&quot;&gt;x[Mn+i]&lt;/font&gt;" style="text;html=1;strokeColor=none;fillColor=none;align=left;verticalAlign=middle;whiteSpace=wrap;rounded=0;" vertex="1" parent="1">
          <mxGeometry x="55" y="790" width="305" height="20" as="geometry" />
        </mxCell>
        <mxCell id="rrRRbhQIlmtl_uCbY6pl-127" value="&lt;font face=&quot;Times New Roman&quot;&gt;output samples of block&amp;nbsp;&lt;/font&gt;&lt;i style=&quot;border-color: var(--border-color); font-family: &amp;quot;Times New Roman&amp;quot;;&quot;&gt;N&lt;sub style=&quot;border-color: var(--border-color);&quot;&gt;i&amp;nbsp;&lt;/sub&gt;&lt;/i&gt;&lt;font face=&quot;Times New Roman&quot;&gt;are &lt;/font&gt;&lt;font face=&quot;Lucida Console&quot;&gt;y[Mn+i]&lt;/font&gt;" style="text;html=1;strokeColor=none;fillColor=none;align=left;verticalAlign=middle;whiteSpace=wrap;rounded=0;" vertex="1" parent="1">
          <mxGeometry x="55" y="810" width="305" height="20" as="geometry" />
        </mxCell>
        <mxCell id="rrRRbhQIlmtl_uCbY6pl-128" value="&lt;font face=&quot;Times New Roman&quot;&gt;internal state from block&amp;nbsp;&lt;/font&gt;&lt;i style=&quot;border-color: var(--border-color); font-family: &amp;quot;Times New Roman&amp;quot;;&quot;&gt;N&lt;sub style=&quot;border-color: var(--border-color);&quot;&gt;i&amp;nbsp; &lt;/sub&gt;&lt;/i&gt;&lt;font face=&quot;Times New Roman&quot;&gt;with&lt;i&gt; L&lt;/i&gt; delay elements is connected to block&amp;nbsp;&lt;/font&gt;&lt;i style=&quot;border-color: var(--border-color); font-family: &amp;quot;Times New Roman&amp;quot;;&quot;&gt;N&lt;sub style=&quot;border-color: var(--border-color);&quot;&gt;j&amp;nbsp;&lt;/sub&gt;&lt;/i&gt;&lt;font face=&quot;Times New Roman&quot;&gt;with &lt;i&gt;K&lt;/i&gt; delay elements&lt;/font&gt;" style="text;html=1;strokeColor=none;fillColor=none;align=left;verticalAlign=middle;whiteSpace=wrap;rounded=0;" vertex="1" parent="1">
          <mxGeometry x="55" y="830" width="305" height="30" as="geometry" />
        </mxCell>
        <mxCell id="rrRRbhQIlmtl_uCbY6pl-129" value="&lt;i&gt;&lt;font face=&quot;Times New Roman&quot;&gt;FIR&lt;sub&gt;0&lt;/sub&gt;&lt;/font&gt;&lt;/i&gt;" style="rounded=0;whiteSpace=wrap;html=1;" vertex="1" parent="1">
          <mxGeometry x="130" y="899" width="60" height="90" as="geometry" />
        </mxCell>
        <mxCell id="rrRRbhQIlmtl_uCbY6pl-130" value="" style="endArrow=blockThin;html=1;rounded=0;endFill=1;entryX=0;entryY=0.25;entryDx=0;entryDy=0;" edge="1" parent="1">
          <mxGeometry width="50" height="50" relative="1" as="geometry">
            <mxPoint x="90" y="908.86" as="sourcePoint" />
            <mxPoint x="130" y="908.86" as="targetPoint" />
          </mxGeometry>
        </mxCell>
        <mxCell id="rrRRbhQIlmtl_uCbY6pl-131" value="&lt;font style=&quot;font-size: 10px;&quot; face=&quot;Lucida Console&quot;&gt;x[2n]&lt;/font&gt;" style="text;html=1;strokeColor=none;fillColor=none;align=right;verticalAlign=middle;whiteSpace=wrap;rounded=0;" vertex="1" parent="1">
          <mxGeometry x="40" y="899" width="50" height="20" as="geometry" />
        </mxCell>
        <mxCell id="rrRRbhQIlmtl_uCbY6pl-152" value="" style="endArrow=blockThin;html=1;rounded=0;endFill=1;" edge="1" parent="1">
          <mxGeometry width="50" height="50" relative="1" as="geometry">
            <mxPoint x="190" y="908.8" as="sourcePoint" />
            <mxPoint x="230" y="909" as="targetPoint" />
          </mxGeometry>
        </mxCell>
        <mxCell id="rrRRbhQIlmtl_uCbY6pl-153" value="&lt;font style=&quot;font-size: 10px;&quot; face=&quot;Lucida Console&quot;&gt;y[2n]&lt;/font&gt;" style="text;html=1;strokeColor=none;fillColor=none;align=left;verticalAlign=middle;whiteSpace=wrap;rounded=0;" vertex="1" parent="1">
          <mxGeometry x="230" y="899" width="40" height="20" as="geometry" />
        </mxCell>
        <mxCell id="rrRRbhQIlmtl_uCbY6pl-154" value="" style="endArrow=blockThin;html=1;rounded=0;endFill=1;entryX=0;entryY=0.25;entryDx=0;entryDy=0;" edge="1" parent="1">
          <mxGeometry width="50" height="50" relative="1" as="geometry">
            <mxPoint x="520" y="908.86" as="sourcePoint" />
            <mxPoint x="560" y="908.86" as="targetPoint" />
          </mxGeometry>
        </mxCell>
        <mxCell id="rrRRbhQIlmtl_uCbY6pl-155" value="&lt;font style=&quot;font-size: 10px;&quot; face=&quot;Lucida Console&quot;&gt;x[2n+1]&lt;/font&gt;" style="text;html=1;strokeColor=none;fillColor=none;align=right;verticalAlign=middle;whiteSpace=wrap;rounded=0;" vertex="1" parent="1">
          <mxGeometry x="470" y="899" width="50" height="20" as="geometry" />
        </mxCell>
        <mxCell id="rrRRbhQIlmtl_uCbY6pl-156" value="" style="endArrow=blockThin;html=1;rounded=0;endFill=1;" edge="1" parent="1">
          <mxGeometry width="50" height="50" relative="1" as="geometry">
            <mxPoint x="620" y="908.8" as="sourcePoint" />
            <mxPoint x="660" y="909" as="targetPoint" />
          </mxGeometry>
        </mxCell>
        <mxCell id="rrRRbhQIlmtl_uCbY6pl-157" value="&lt;font style=&quot;font-size: 10px;&quot; face=&quot;Lucida Console&quot;&gt;y[2n+1]&lt;/font&gt;" style="text;html=1;strokeColor=none;fillColor=none;align=left;verticalAlign=middle;whiteSpace=wrap;rounded=0;" vertex="1" parent="1">
          <mxGeometry x="660" y="899" width="40" height="20" as="geometry" />
        </mxCell>
        <mxCell id="rrRRbhQIlmtl_uCbY6pl-158" value="&lt;i&gt;&lt;font face=&quot;Times New Roman&quot;&gt;FIR&lt;sub&gt;1&lt;/sub&gt;&lt;/font&gt;&lt;/i&gt;" style="rounded=0;whiteSpace=wrap;html=1;" vertex="1" parent="1">
          <mxGeometry x="560" y="899" width="60" height="90" as="geometry" />
        </mxCell>
        <mxCell id="rrRRbhQIlmtl_uCbY6pl-159" value="&lt;font face=&quot;Times New Roman&quot;&gt;&lt;i&gt;i&amp;nbsp;&lt;/i&gt;&lt;/font&gt;" style="text;html=1;strokeColor=none;fillColor=none;align=left;verticalAlign=middle;whiteSpace=wrap;rounded=0;" vertex="1" parent="1">
          <mxGeometry x="565" y="690" width="20" height="20" as="geometry" />
        </mxCell>
        <mxCell id="rrRRbhQIlmtl_uCbY6pl-160" value="&lt;font face=&quot;Times New Roman&quot;&gt;&lt;i&gt;L&lt;/i&gt;&lt;/font&gt;" style="text;html=1;strokeColor=none;fillColor=none;align=left;verticalAlign=middle;whiteSpace=wrap;rounded=0;" vertex="1" parent="1">
          <mxGeometry x="600" y="690" width="20" height="20" as="geometry" />
        </mxCell>
        <mxCell id="rrRRbhQIlmtl_uCbY6pl-161" value="&lt;font face=&quot;Times New Roman&quot;&gt;&lt;i&gt;j&lt;/i&gt;&lt;/font&gt;" style="text;html=1;strokeColor=none;fillColor=none;align=left;verticalAlign=middle;whiteSpace=wrap;rounded=0;" vertex="1" parent="1">
          <mxGeometry x="630" y="690" width="20" height="20" as="geometry" />
        </mxCell>
        <mxCell id="rrRRbhQIlmtl_uCbY6pl-162" value="&lt;font face=&quot;Times New Roman&quot;&gt;&lt;i&gt;K&lt;/i&gt;&lt;/font&gt;" style="text;html=1;strokeColor=none;fillColor=none;align=left;verticalAlign=middle;whiteSpace=wrap;rounded=0;" vertex="1" parent="1">
          <mxGeometry x="660" y="690" width="20" height="20" as="geometry" />
        </mxCell>
        <mxCell id="rrRRbhQIlmtl_uCbY6pl-163" value="&lt;font face=&quot;Times New Roman&quot;&gt;&lt;i&gt;i &lt;/i&gt;=0&lt;/font&gt;" style="text;html=1;strokeColor=none;fillColor=none;align=left;verticalAlign=middle;whiteSpace=wrap;rounded=0;" vertex="1" parent="1">
          <mxGeometry x="147" y="879" width="26" height="20" as="geometry" />
        </mxCell>
        <mxCell id="rrRRbhQIlmtl_uCbY6pl-164" value="&lt;font face=&quot;Times New Roman&quot;&gt;&lt;i&gt;i &lt;/i&gt;=1&lt;/font&gt;" style="text;html=1;strokeColor=none;fillColor=none;align=left;verticalAlign=middle;whiteSpace=wrap;rounded=0;" vertex="1" parent="1">
          <mxGeometry x="577" y="879" width="26" height="20" as="geometry" />
        </mxCell>
        <mxCell id="rrRRbhQIlmtl_uCbY6pl-165" value="&lt;font style=&quot;font-size: 10px;&quot; face=&quot;Times New Roman&quot;&gt;0&lt;/font&gt;" style="text;html=1;strokeColor=none;fillColor=none;align=left;verticalAlign=middle;whiteSpace=wrap;rounded=0;" vertex="1" parent="1">
          <mxGeometry x="565" y="720" width="20" height="10" as="geometry" />
        </mxCell>
        <mxCell id="rrRRbhQIlmtl_uCbY6pl-166" value="&lt;font style=&quot;font-size: 10px;&quot; face=&quot;Times New Roman&quot;&gt;5&lt;/font&gt;" style="text;html=1;strokeColor=none;fillColor=none;align=left;verticalAlign=middle;whiteSpace=wrap;rounded=0;" vertex="1" parent="1">
          <mxGeometry x="600" y="720" width="20" height="10" as="geometry" />
        </mxCell>
        <mxCell id="rrRRbhQIlmtl_uCbY6pl-167" value="" style="shape=image;verticalLabelPosition=bottom;labelBackgroundColor=default;verticalAlign=top;aspect=fixed;imageAspect=0;image=data:image/png,iVBORw0KGgoAAAANSUhEUgAAAWAAAABCCAYAAABpcgzFAAAdgElEQVR4nO2dZ1hURxfH/3fvLl06AiKKICDGXkBEERSNxmhib7HXvIkpGks0MTHR2GIkmmI0mqixxBaNMcZYFgQVu7GhIk1FEEQF6ey95/2wCyxS3GUXF2V+z3M/7O7d2dm5M/+ZOXPmDEdEBAaDwWA8dySGzgCDwWDUVpgAMxgMhoFgAsxgMBgGggkwg8FgGAgmwAwGg2EgmAAzGAyGgWACzGAwGAaCCTCDwWAYCCbADAaDYSCYADMYDIaBYALMYDAYBoIJMIPBYBgIJsAGpPD2PnzUtScWXxYMnZVaiIg7Pw9GpwkbEZ1j6Ly83CjOzUFTKQeOK/+S1J2AgwWGzqVhYAJsIPJvrMfQwMm4MuAbfNicN3R2aiESuI79Bh8qFqBbn6U4k8mCAlYXUp8p2HDgD2z8bgHe698aDtLSn1NONnJqafFzLBzl84dS92FCxxE403cPwpZ3hS1n6BzVYvKuYGWfrlhivhQRO8fAXfrsrzB0QcCdLUPhN3InkkXVW+ZDsTt9K/oZGzRjBoGNgJ83+dewavgY7HD6FFuXMPHVCDEeP4RYgudlMDY1h6W1LRyc6qF+g4Zwc2sIVxdnODrYwcbKAmYmRpDyPKz6b8FDTYYWJs3w7sZVCDg9FYPmnQAbCFc3PFwHzcDIxtU96yM82jkCjrIKTB9SewzYnAqdHzc9wtGP2sCSr8C8YtkHG1Ir/pXn0t/nxv2LDdvOgHzfwriQhqiFHZ2KbByfNwQzo7wwP+p9vCLT9vsCUk9tw8ZDyXDtMxGDW1qhVui3xBWDV/2DV1JykJOZjjvhP+Dj0GNIUtVrk8a98b/pA+DX2Ak25iaQyYxh17i1xp2bxHkwVob+gTYjhuKDjhex7nXb2lGuhkLmjebeUuBmda59cLDu8SX2HZmIrLwcZKZdw5bPPsZfKUbIy84BCY9w7vQNKEbUhdbNsBjCo4Nz8dnedOQXjebNfDDwow8wsF0D2JmbwtTWA63rVlKbqJoRYtdSLzuOABBMgun7RKG6f7LGUnBlMfmZSMln5inK0/rbIqUfmEweUhAA4j1nUFRhNWTyBSDv8GSqxynLAbwnfXQyX/dEhVsUGmhGUu8PKSJL9+QYlZFDvw8wVj4/gGA+lHZr3yC0Q4il5R0tKWTMMHKVKH/XuPcGeihWPUnx8SGa2mMSzR/vQRKAAAm5vnOUcrVIo5pNEISUg1txJF01VDGygIVxLR1biHfx26wlOGPSC7M+aF+FWUABTmzZhliF8pXEvA5Ma2VRKnBNHon7qiolce6B3m2MdE9W4oEJn4+F660fMe3bS6ili/IvLfT4BMKv+iBkpB/cVdYPRUIMEqs8CH+C8PnLUPDuWJhcSYQIAJwNgnv6wUSLVKpZgDnU7TYMr3tYwtI1EO/9uhLDHWujahAeH/gM8w5kwG30TAxxrkoZGMFv2Bi0dagDhxZD8e36aWjxPJwnFGfxWZt66LYyBjXCWU5MQsSxm8V5qRMQjLZ60F8AMA/8Hya0VODsklnYeEd89hcYLwz5p+U449gZXXy94G6pbH/C7VjEF1YtvazIL7Eo83/4wjcaYZdUoyKTDgjuYKpVOtW+CCf1moBdtzKQcTsc3/Zzez5G55qGeBubv96Ku1wTDB3VQasesgQODr1CcTY1E6n/bcXbrc31nMkKEBJw7VoKoq/drhECTBnHIb9Q1GqM0T64Iyz0lTjfBG+N7wyTzMP4ds1/qGLbZNQ4FLgkPw7qGIyWpm7wdFONXPLiEZtUhY42JwqLvkzFxIV9YHFajlN5yrdlLYPQSctVdeYF8RwQrm7A2shcSJsPw7CWL2YXVFOcA/LPyHEyW/VC2hRBnevqccFMAtc3B6OjsQLXfvkJ4bl6S5hhSMRERESkoF2wH0x4V3i4qaZMinjEJCi0TCwXZ5Z8joQxX6G/o4CL8kg8JgDg0SgwEG5aKioT4GpHgcvbt+OKgofHq6+iCdtzoQMKXJFH4kGR/dclEF089VugnFMIeraWQby3F9vC2Ra5lwF6FImwa00RHGADDiZo1NgVvPIDxMU90mpwkX9hOebdGI4lQ+pBIsTiWMQdlf3XFp2CWmg9w2cCXN0I17HvrxsQOHt07tq8dppg9IV4BxERsSpTCAergCC0rroPUflI3NCtmyd4SsU/f55CfpUTKkTYu67gy/NBNQnEt/FFU99cxB/+ATOGBaO5qw3MjGQwtXND2z5T8UNEMsqMzxSpOLN5Psb1bAt3hzowNjKBlbMPAofNxeb/HkGrCbUiDRd2fYNpw3ugnVc9WJvJwPNGMLdzhY9/b4ydsxoHb2ZqlyaAguTT2P7NNAwNagF3ZxuYGhnDwtYFTTr0xIgPl2HribvIfY5TqrwoOc44B6JzQwkAHm6ebkoBhgIJMfFly7giCi4jdO5FDFzyFupLAHoQibArqm+b+SPYrwoOtlV3wmBogpC4iroYgWDyOm1I18HnxVDk7aCBxhw5TT5MenD20gkxfSP1MVO5LsGEXl2bQtVRotl/DCcrgHifOXSuyq5+ImXclNPOn+bTyHZ2Kjcl1SVtR4uiFUTZl+nn4d5kpv6Z+sU7Uvevz9ITVYq5MdvpnXY2pdNSv0yb0Pjdd+jZjp4KSglbSgO8LZTf4yzJq8dYmvnVClq18mua/94gau9kpMqDPbWftJ7+y9CgpPPjad8nvcjNtCg/9Slg2If0xdehtGLxHJrStyXZS0GAlGRSPCc3tAI6Od2TnMcfKHYPyz/6drEbo2m/LZSpYTpXv+5Nb/4YSwrVO1l/DCcbVTqygBUUVwUPWz0LcAGlnFxH097wJa8GjuTg7El+g+bR3phs/f7MC0TWrqHKxuw1i05r2ZgLkyNo1cRu1MzdhZxcvMh/0Hz6+3ZB9WS0ImqQAOf+PY4civx/pe1p8XXFs79UBYRby8lfBoJRN1p9Tw8Sn32a5rSUlRLghVHHaVGwPUlMXMhv4Ls0b1kohS6ZTW91cCKZuqhKXGnUnlTKPL+CXnXkSWbfkl6f9DEtWvEtLf/8bXrVw6yUCHN2/ei35MrynEfX1w8kN5nqfpuONPvfJHq6aooZ5+m7N1xJqkrXotVU2p9cscKImWdoabe6xZ2DWfOJtO1GztN3UcaltTTUw6h0x1GdAqy4QUv8rOmN39KLO2shbgUFqP6/tNWXdEWDalR4PZRe77uSbhQXVAFFvN9Q9X958vn4bJky1AT9CbD4iE4u7UkeTYfQNwevUmquQDk3vqVuFiDO4XVaH18bN2AU0vm5TYkHyKTPRnqkzTfjttCIFq1o5OpTlFpAlBs1g5rwIOMWc+l0dTutq1NjBLiQTs30Il7VaCXu0+h4dfVF+ftpjC1H4Bxp4r/6+NcKuvxlq2IxA2dHjRrZUb2QefRP4lMPU3GP9o5rXHIvQLxbG2rtYEu+722n609tEhEzTtF8fws1QTOmwJUJFYyCRXpwYAp5ytTF/X7Fs4isKJrTsmTDhEWHhXT+aU0lIhJu0+YBzsXiK6k3iLbcrljV8v77ijqYPh8BFlPXUS/LAFqhrj+5f9JbVqrfthlF+57124oY+q5vb/rmmlqFU1ylBW2kqufpRBMParP9ogQ9mSTzce37oRjxZ0dsOfEp/KxU69LugfB343HkygEs+uEsRi711dEGKiL56Pf4dk80MgrEaluZ56RmcA4Yg+nDWkA3Z688xFxPhAAJnBu4ap5W4VWEjp6LJx/IsXtsQ/AARLu6sOaA/CsbsTHqM7Tvom/jZw1HTETEsfhi+69Np2C0qq4ikDijvrMEePgQMTFpELu76LhYwsHU1KTEW4MeIr3+EkTsm4EWT/sk8s7os/gz9N45EnszlW8JCVdR+MEBHPkmGDZPuXxwlr6YtXQCNnQJRZwIAPm4cPwc8qY2hNlTSVPGIcyZsgYxKv86i5BPsLBPJV4k5r6YPvdN/DTkd6QTkBX1Jd5e+SYiZzVVa8ci7m2eivd2J6tsxXXQbd7XGOJa8eKocYu38XbX+YjaX3ULu6bkRoXhXP0uWFBf7QnK3ODpJgX+UwBZ8YhLEYGGFT1hAfHrZmJ/wGLs8SmpcJQaibCrKvuvuT+CfavmXKoXAc67sBRjQy3xpfyTEvEFAMpGdjYBEHH7VhzyoasAKxB7cA1+XH0VmYXVaMWXmMApsQlGDmmBRrq0PCEZiXfzAUjg4OygYSMWcW/LHKw0+xgnRjdEUTV+cvEMrisAcHnIzaspTmHPD3oYCfl/RZ65JvAL7gDtXN61gHeGqzMPXFXgbvxdiNBVgJ9C4oZxi94vK74qOLvO6NpShr0Rqv9r/Cpmf1FWfIswbhsMf8tQxD1Wvs5LTsIDEWhQKtMiEjd9hU2JRUtqdRAyeiBcKv1jHGx7j8BrNtux6SEByMPplaE4OnUNehSpe8FphC74C0WbXTnrnpg4xPUZ5WUMk6rplZYU4qL8BGQBP+IVdeHhG6Kxm0wpwEICYhKECgVYvL0BM3e3xVd7m0F9v0/WSTnOqPoPWZtgBFhWLYe61ysxHus++gm2s5ZjqGvp5MTU/3AxSQTAwd7ZEbpvWDJCpyWXlaNfpfmkei4hF8n7JukmvgAgPkDKAxGABHb2dpoVtnAdv353Dl3eHoziTpvS8ffWf/EYACz80FnvS/81n7woOaJUDu+QtkRwp2oMmMNZw9ZaAkDEg/tp+t+AwpnA1KSS2iCxhZ2N+udGMK6s8UhtYW9Vcj/l5SH/6T5aTMSebSdQ7Nosa4FAf+tnl6FpB3RpX/LjlPwXdp8sGbnmRWzAllslJWQa2BchVjVkt6sQi2ORD+Eb/PTWf1M08qinbI9iKmLjMsufTYt38duMbWi6YDpalUqgAOflx/EEAMDDO7Az6lVRK3QWYMWZH/H9g5H4YlTZXi8z4gjOFgCAOXw7tap9LliUg+wcAsDBRH0KWglC7F/Y92QQJve0Kn5PTNqJ9f88BsDB9rXReMOhhlTw50YhLoZF4pGqlfCNOiNQW493reBgYqpscXnZOQbYAciB0+oRP30/lRWU7DOIvKi2t8/cA56aqAZnDe8mziVtm9Jw/lyiqkwUiJYfQ0qxnxoP95bNUaeGVE96EImwG80RXGZ4KoWbV9GuXAUSYhLKecYi7v0+C5saf4FZ7Z4args3EB6hMrlwjugU1LTK2qazJvJN38Ef+x3gXcYFLg9RhyORBQBG7RHSuZaETlSHcpGjcng0qnQIUwLvMQm7wmVwLi5PATd/+xnhOQAkLhg0/jVY61CQedd24Ot14UjKVmhmQxficF5ByDgWinen7NCox+YkRrBs/DqmftAD9fWhk0I8Io6pAp6Ag22nYDTXtuZSFlLTODjUNdegHhZ1mBkQ83KQR4DZC155heR43FYzuUrsHGCv0bORoG49B0iQoCp/ESl3kiHCCzwKEXtTXbx4OLs6oabsNco5Kcf5hoFYXKaj4WDn7g4b7gjuk4A7sQkoQNtSYkgpuzDrZxd8trdDGVu6mBKJ8GiV/deiI4LbV31ur7MAc3UawrtOOR8UXsThsAcgANJXuiHIuZbu+ShSOU2HNLw16jmqvS44g3XrL6AQAO8zBpODn64O2iDi4bntWP3jbiTlauleH/0X1kZrerMUFp6EkCk9UF+X7Kqg9EjILxe5y5vBv6t2EacAwqM/JsN/ax+c3zEUVs/+AjhOVV+pnNHkCwjlZJU69oeTGUGmUZXkYGJqqtZpEQoKCpVlQnnIzlGUutfYxLiGDLQKcSHsJIw7joNPOSrHu3nCjQfuK4C8+FjcFQCvop6D0rB3zmrYf7oHncoJNJJ1Qq6a2QNG7YLRUYdgJNWmisKto5AnKu2fDYKCoecdoy8GnAnMVDEjC/KrFuAw6/AabL4lADBGh/FjoFsoCQnqjdyBuzmC5vbwvB0YaMzBafJh5GtsRy/Ek5ur0F0P4gsAOVFynC4avclaIShAA9ulOpSMXWvD0Kpfd2i6VpKfr/xBztTspQj7yZmal/ofmp/DRsjLzVPrhCSwsrFSCgdnDHPTUuNG5GTn1owOS4hBeMRj+AW3Kzf0K+/igUaqVVwh4Sbii4fxhPT9c7DSbDY+71LeyLIAZ+UnVPZfKXyCOkOXsWU1CbCIlLDDuKIAwNkhMKS1DlHnX2A4M5ibcQAIuTlVqJiUhj1rdiOZANQJwYRh7rVw73ihWsATgG8ciEBX7UpBuL4Ray8F4a3edhoKt1gsOiZmZjVmSq0LfD03NFCbKYvp95CskReYiLTkNLXtyDI0buKuKhMjuDZyUSsfAUkJd2tG1LzUSITFtERwQHkiCsCoETwaKHNOGfGIUwUYoUcH8clyHjO+CEG5a4mKaIRFpCjbssQJnQK9daof1dSeM3Hs8FllUGuzjgjx15fPSQGOz24BG2NJhUdc6+WSmsOl71rE6xoSVuIAJ3vlanp62gOt99SLCVux5mAGAA4OfSegn1NJjSjMSMOj2hA1XLiFYxF3i+2/Dp2CSrsUPZNMHF6xGkm9RqKHJrYHAKDHeJCuACCBvaP9y9Hpmfuik7rjdH4MrsdrIJX0CNej75XUXWlLtRmIFK/4t4NlcbUUkHD2PCo5Au25kXVSjgvuQejsVMHT41W+wACgSFBGRaMMHJm3FAUfLkDPCsJKiskROFZ0lFKdAATrGIy6ehwTck/icGQWAMCoXQgC9eaWIkWjbmMwLiMamYXVZ5vjeFM4BrSDg64tj3dCg/pGwOk8PEhRCrDmvaWAq5vW42QeAEkDDJnQs8R2Kd7Bz4O64eqcq/gu6OWeW1CamsM7zOEf7KuV/Tf/wnJ8/BuH/v8Ea74RRkxDSpryabk0rP9SjIAhcUO/YQGYeyJM6YqmuI6j4Un4pHmDyjuYJ5E4cqakpzf2G4r+HiUlYtF1EHrZbcMW1QgyP3IDtt6agOkGtTkW4Lz8JMwDJqFJRQrHWcDdwxES3IYo3kNsfDYyC+bjq8x3sK2PfYUzpSfH5TivKg7j9rrZf4FqEuDCi4cR/oAASNE0JKjKPnJlkaBe92lY3l1f6VU3pmjs3RA8opEWl4BMAuw07YsKz2LTb1egAMA3HYXxnUpkR7i1FRtjgjDf9+UWXwDIPinH6SL/X1mbclyKKoYywjF31BJccn0fq/21iFSlSEJikgBw9vD0cnw5RsCQwG3UHIxafgw/JYgA8nHil024NmUumlWoAoSUPb/i76LjpSUuGDZ7NNzVC8TqNXw4sSm2L7qqjCqWH4WlM7dg8K6RqNBSJD5C+qNqHCYLNxAe+QQd5rarZO8BDzfPRuBxGyIKEX9hCz5fl4pJm/uh4jM083FGflLp2QUpmgZ1ruRezaiGuiUg5qgcyvW3+ggK1s1G8mIjhXebZjADoLh1DbFaGMeEhGMIjxcASNFq+HA1t6ssRKz6FQVj/gedHCJeCApxXn4cqh254L27oLOGvTmlR2DBmwOx4ooCrwwfgbZa9FViUjSuZxAga462zaujkyOQlvqj1f0V3WwZgoU/TEBjVV0qvLACszcmVmizpbS/8cnnfyMDAMCjwfCVWNTb5qnRoTHazgzFZK+iciKk7nkH/T46gKTy4jzmxWLn/3phxlE1+5mogKDHE6CEG39i782W6OJf2ZxHgroejVTmEwHRPyzC7XFLMLiyFTXFVcgjVUfZS1zQOdBTZ23TvwCLyQg7ouwNOdsu6FYLd22pY9bWHy1kgHDnCq4+1rwVcTIjGHEAOAe093MvftBZUV/ho6NdsOi9li//wqbiEv45nFRs/3XsFISmz5qzURZi/lqI/h1exbywBxBlbTFi2CtaNZSCG5dxUwHwHn7w1XWIAwBQIOl2conQCUm4fOVBxSY0MQX37qvJohCPmLhKotbmJuPeoxIFE+7cwK1yT/PgYNdrJfb9NBBuMgCUjv3vvYkP9t0pc/ySkBqGzweOxvp4AQCPer1Dse+n/nAqpzg46xAs27EM3Yttdk9wbkUftGg/DHNX78Kh46dw6vgh7PpxDga1b4vhf9dHSHs1Q1LBRUSe1VPw+/wY/PLxKlwoFCE+Q9Slbl5Qnk7EwarrfHwzvH6lgijcOoiDRfZfqwAEt9FDC6xSCJ9KEB9upjctlJGGzPtuohcxBK5eKbxAnzbjCZw9jd1fXiipChASad1rtsTBmgZsTSexIJ2i935MgY270MKozGqJg1suzzMaWv59ij4VScfCj9LBPRtp2di2ZFUUfhI8eY/7lY5ERFJkpPp1jOT//kU7fl1FX74/jLp4WJaKl2vcZSUlaBWIr5DOzfEhHhy5TDlCugTpEh/fohOH9tAvC4ZQU7OSPAEgWHhTn+mraPuhS5SiCrJVcP8qHft7G62Y4k92XOn7zRr3pumrdtDhi/dUeRLowfVIOvTHWprT2610CEvw5NhxPC1cv5fCrqVR2bhkCkoJX0YDvS2IAwhcHfLqMY5mL/qWVq1YRHMm9aamNrwqpm8j6j3/H7qjQeS5nBvb6F0/++KIdWUvnuoGTKe9CZm0Z0SdUp9JXUJo+g876EDYCbqepk2YUYEe34qiI/u309rF71FfHyvlfwJHtr7jafGGvXTo2FmKKy+e8ZPfaYAZiLPuQavjyv5mfmo0nToeQeFH/6W9v31DkzvYqtIGwbwdvb1mDx0Ki6DI46fo2v2qtQ69C3DO/rGqmK0yClyZqEFw6JedAjo1w4t48OQ967RWMUPFxxfpl3e7UzM3V3Jt6Ent+8+hndFPnp/4Ej1XAc7eM6I4wLVeLt6RhvxeSbjF8hDiaEWAjMA50fh/dItjnX9gbBkhLXMZdaUfk0QiEil5dTcyesZ/kvouoRsKIqIntPkN42eWgfHrGyoOg1qQSud2rqAZb3Wn1h71yNZMRrzUhCwd3alV8CCaungrRd3T8qkLD+nynlCaNrgzNW1gTxZGJmTl7Em+fafS8j2X6ZFARJRP/05yLBGzUpcR9f71oebPrPA0fexjRLzMmMwsLMnGzoGcnJ3J0cGOrC0tyNRYRrzUjgZte1A2TUU0LeviRQN+iS2nk8qhP0faEgcJSY1MybyONdna1yUn53rk7OhAdjbWZGlhRiZGUuIlptRu4aVy0ng2eg/IfvxDd+UIRNqS5l+qnoDZLxqF5+aQDw/im31KF6t8woKBqDHxgJ8Pwt2fqLspSFJ/Ch3WYsLCYFQF/dqAhRs4Ir8N5fpbELqyEygBANJW4zCxgwmE6F3YcVnbU1hrBi/BZjANEHF792Ycy+XhM3oiAqst3iWDoUSvAizEHcD+q0oH9oZvDED7l36VSEMk7hg1rT8cxevYtuEkXqjTzvmG8PFxhLeP68vvzSLcxLaNJ1Fg0xPTp7R6+Rc5GQZHSwEuRMzWyfB3sYKN90Csva4+mivAhfW/4mwhAFNfvD3Zv9w92LUTDnZvLsDn3SwQv2E5dt6vAVuFNEXaHl9cSIb8fa+XXoAz//0a35/n0X7GYryllzBuDMYz0MZeIST9TD0tiozlMgr6ruQEViFhDfW05ggwo7bzTlHtPYazYvL/W0DtTGTU4pNzOq2uM6oBRQyt6GxKUs/3KTzr2bczGPpAq25eTIlDomr+zNl0weBXlYGaKeMMFo+aiYOPjeAx4mfs/NS3TAxNBmDU4gOseKcxrq94D6uuPe15yTAcIu5smoaFJ+0wbOlcdNbtIEAGQ3O0kuucCPrQU0qclT99GvGQxMLHFBf5M01sYUESq2Y0ZJmckpnjQ+XkXKRlgTZkFax+xDXDkAh3N1G/uubUenYklecuymBUFxyRdpsi8+P2Y/nni7Ex8i5yC0RYNGyGNp36453po9Ghbq07dKhKiCl7MD5gDK6MOAj5F37QMZ4HQxdyLmLZa92wvM5SHP9jPDxYFWY8R7QWYIZ+yL22BsN6fQlx7iHsmNSELVgaAuEudo4JxLt3J2Lv3tnws6wdznaMmgMTYANSkLAHs8b8AMdVBzC7+cvuY1DTEHFn3VAMO9Eba1aNRlO2aMEwAEyAGQwGw0AwZ0cGg8EwEEyAGQwGw0AwAWYwGAwDwQSYwWAwDAQTYAaDwTAQTIAZDAbDQDABZjAYDAPBBJjBYDAMBBNgBoPBMBBMgBkMBsNAMAFmMBgMA8EEmMFgMAzE/wGXgGgzqDCKcAAAAABJRU5ErkJggg==;" vertex="1" parent="1">
          <mxGeometry x="373.33" y="740" width="106.67" height="20" as="geometry" />
        </mxCell>
        <mxCell id="rrRRbhQIlmtl_uCbY6pl-168" value="" style="shape=image;verticalLabelPosition=bottom;labelBackgroundColor=default;verticalAlign=top;aspect=fixed;imageAspect=0;image=data:image/png,iVBORw0KGgoAAAANSUhEUgAAAPIAAAByCAYAAABp2Ix8AAAUr0lEQVR4nO3deVxU9f7H8dcMDAOiiDsuKIukppmmIrI1Y7ZYeb33drtmmebWVcvbTcsWq9stM8u2q3m1tEVtMdOb5e16f2UOwiBuuG+5AO47IggyzMw5vz8YQA11BhwGZj7Px2MeD0ec4SDnPd/z+W5Ho6qqihCiTtN6+gCEENUnQRbCC0iQhfACEmQhvIAEWQgvIEEWwgtIkIXwAhJkIbyABFkILyBBFsILSJBrNRuZ0+8jtmcv+v4jHaunD0e4lXLsa0b16UnPPuNYesa1mdP+bjomcUOoFBzcRmbmERp2yUMmxXu5kpPsycwkU9OQ0y5+akuLLIQXkCAL4QUkyMK3WdfwXMdA/Px06OvVJ6RRE5qHtSa8XQQREe0Ib92S5k0bExoSTJBeh782gKin02pdf4XUyMLhIlkrF7J4bQndHh7FPVGBnj6gmqHrzvhFK+mfW0Rh3in2ff8Wzy3YQQkAGkK7P8z4kXdza7vmNKwXgE5Xj5Y390Dn4cO+kgRZAApZcx8g9i8rOKtCoMmPvT+PJdwnrteCaNMtkTYAqJzO+4oXFuwo/ZL+dqYsW8ATbWv/f0TtP0LhfsoxVny5krOObvGA4GD0Gs8ekmcUkWFah8XxTNf9fu5pUzciUjeOUriXNoy7hv6emxqG0CZxPJ/NeJjmNRBk9fhCHgjvwF9/uej+b+YM6xZM5rJhPj8ik5NpV0cSIpfWAvAnZsRifh1Rs9/VfnwPu4/nkH/gPOodQXj6IsC+P5W0I0rpE00TEo231JmA1JHPG+HVasVMF5XT5hR22hxP6/Whb6zeo0fkCgmyEAAUkmFaT7Hjma67gYRQT18jOE+CLASAdROm9HzHEz/aJydTR/q5AAmyEADY96aSdqysPm5GoqFznamPQYLss4r2L+f1h+LpFNGaVu1u4Y5Rs1iXWyuKVQ9QOWlOYXdZfRwcT99edac+BgmyT7qQ+Q4Df/c2eQ9+xvoDR9gx/Wa2fDqe/kM+4aDi6aPzhAusWbWxYvy4h5GEEI8ekMskyD5GPf8LLwz9jA4zlvPOAx1o4KehQbOmBKFybuWnLM3xwSSXZGJaU+B44keH5CRa1rFk1KUyQFSble0znmNFwnts7hfqGLdVOLRpE6dUQLVQXOx7l9f2PasxH3d8gGnDSDJ0qnPBqGvHK6qjcBUz55Xw0LI7aFD2d/a9fLsoEyugbdWHPlF+HjxAT1A4bk5hj93xtH48xp4BHj2iqpAg+5CStcv4JXIkK2+t+LVbN89n/mYr4EfM4KEk+siipwoFrDFlOlY7QUBPI/H1PXpAVSJB9iEBCa9jXhpCq/L6r4iUeV+w1w7oujNsWHWW5ykcXzWLfy7bzfkSxanJWuqZ9RxXbOR/OYmxm+s59V00/vVomfAYEwd3JbjKx3qJko2Y1lxwPPHnZkMSYa7Wx7ZznDxfjxZNPNfTLUH2JYFNaXVJi6vm/oe53x5FAer3G8NjHatzWW3jwP8+YvbsneTbrv+vL5WXtpCP0pz8x9pAwg525NFBXYm8AR1Stl0ppJ10fOxoW5F0ewdc+1+ws3/m7xl45E22vBvvsXXKdaxvTtw4CkcWf8yPuSpomjJg1AOEVWtGYgCJb+/gvFVFVZ17WDNfpJNfAP3mHEdx8jWq/SLHlz9+Q0IMCsfSUkuvSABCEjDc5mIUbduY//kJ7vpjT49uNiAtsq+y72bB3NUUAdrwBxnVP9Tjq49qXj7ppk3l2/boexmJd/F6vdD0EV8of2JJb892kEmL7KMsa+fx2RYb4EfHIaNIDqr42sWzpynwheFkywZMGYWOJ/50MSbSzJVPM+UwX77zLY0fephuHm4SJcg+6QIr5y0iSwECYhkx/NaKSzPrel41/IGPs70/ybYdJsyny+rjNiQlt3ehPlbJ/fFlXk/tyCMPdXKxrr7xJMi+KG8FC5adRAXq9xvNI9EVp+HF1M9ZEnQv/SO8/dRQOJKWyn5HfawJTcTYzfkqVzm8iDFjFnI2YQh/vjEFe7V4/ghEjSvZtArzeRUI4c4hA2lRdjmpHGXxzP+j87hhVKsDuy5Q8zCbtlTUx72N9HFuBIySnKWMvW803x6rR98hf6R1LUhRLTgEUdM0ugB0GsC/I3E9GpZP1Tzx3fO8eXo0Ux5u7f0nxoVUVpiLHE/86WpMovH16mPbGTYtfJo74wbx8fZCNKH38OjvmteKTkLptfZButhHGdr1Y17ffo6TZ6yo4afIXDSZkW9beHH5RLrWvRmK16UWHmbrtkMUlBRz4Uw2GQunsaR82aY/urxfSU8/dXmtq9qwFJ7n1OH97NiYyk//+YmNRy86JrtoaDrgUe69bvprhgTZF+l78sp/VxAyaTJzB8ewWNuAaMMo3v/5Sfq2qW1br98ICtmfDCH+qVQq36+zmPSpA7h9qgtvqe/E8DF3VsxZ9zCXg2xd/TQd755Bjl2HPlBPoD4QfaCeAH8t2K1YLMVYii0UWyyUqBFMSNnF9PjKTw7r2he4te909it69Ho9+kA9+gAdWnsxRYWFFCpxvLfzZ8bVgQ3C6xr/lgaeWZjOM54+kBqhJeqvqyn6q6ePw31cDrKu1wSWrBzIueJiLpzNYvm0iczb4tiyTNuC5HEvM6pvB8IaBqEPbkWXnlf/hNd1e4L5i9ow8/mnWbi7iAv5QFAb4gcO5Q/9etPllt4k+cbtDnxb7bg6rdNcv7SuF073xPDSP6u55H81iXlbSp/qb3+FL/45zvlbjQS2odd99xL7/rMs3NeYhMenMP3lYfQJ88bLO3ElbVgHOrZoS+uohpLlaqpejVy8jlUZl/T83d3vkpU1TrAd5ccJf2Lq2QeZk/E+o3s29v7eUlFO22oo/z461NOH4RWqFWTbdhPmsp4/bTuSkyOdnuFiO/ELbwx9khUx/2D1uj8TE3T91wghKleNICvkpKaRUzYzplEiBqdmxtg5mfImw8b9QMTL32MafBOSYSGqp+pBVnMxp2wtnxkTGGcg7nq7SyinSXv7Mf7ybUteWJrCo52cnEojhLimqgf54lpMa8tvsMGthsRrzoxRzqTz7vDH+brJMyxePZwudXA7FSFqqyoH2brVRPo5R33sF0lycsRVOqoUctd+wIiRC2jw9NesHtmVBtJFKcQNVcUg28lOTSvfzFzTOAHDLZW8lXqO9TNGMuKTQMZ/mcrj3UJkmEEIN6hakNWzpKVsp2xrpqA4I72vqI/VvI38a/RDTFqbxKKtnzKglsxJFcIbVW3YtigD0/ryG2zQzZhIxR0oVfI3z2FwbDJPLjlA0YlMNhyyX+WNhBA3QpVaZOvmFNLzyurjaG5PDi/9RFAL2DpvLCNm7SD/qGN6um0nn3z4M8/O61+jE8yVoz8zY8Zy9uaXoLjr5gkaf4JbJzF84iC6yBia8KAqBNnO/rQ0jpTVx00Tub2zP+qF7Xw67jFmlozms9WzOfVMJ+6ddxQFhWOLZ/Lta3czwqVpX9VTsncFH82ew68FVqf2WK4aLUGtjtJl2IN0kTnhwoNcP/vU05hNO8rr4+A+Bm7eP5+Rhkf4scdsTF+PoXvDBtzxxEg6l31MFKxk5ie7cHG742oJNL7H7vwS57dZrdLDTtHR7xguIRYe5voZWJiBaUNZfayl0Zn5DBz0LR0+WMWSp2Jp5KiV/buO4glj2d6iVrbN/RBTYWVvKISoLpeDbN1kIj2/4uW2wETeXfU9zyU2vfzNtOEMHv9A+X5QyuGvmbnkhBsvc8W1aDQaedTAw1NcDLKdX1PTOFZ2B8rWI1mw/BWMLSpfKhFy93iGl+/ils//Pvys4q53QogbxrUgqycxp1TUug0S+v1m/PgyAbfxl3FJ5YsirJs+YlZq5ZutCPdyXz+BPC59eIprQb6wBtOGshtQ6ul1RwLXnjKtpd0jTzKwadn19SG+nPkdp+X6WogbyqUgl2SaqLgDZRf6Jl1/K1BNo/sZPzTasU5ZJe/HmXy+z/3X18UpE+kcqkfr1prIn+DwB/j8sPfflUHUbi6MI9vYs9rM8bL6ODyZ5PbObCOgp/fYsfSeNZE1FqBkPXP+tYbxHyThzntqB0TfyWMjithbYMVtVzwaP+qFJXNbYxl+Ep7lfJCVE6Sl7KG0LdXQKKkv3Z3cWssveijj759CxtJzqChkL5zJ9y8nMqiJ+3r5tOH38Ox797jt/YWoTZxvSgrSMWVW1Mexhjjnd/bQNGXg+Edo5/huau5yZi7IQi5IhbgxnA5yoXkFqeX1cQfiejZyaUliUFx/DOUrK4rJmPEOv+Rf8yVCCCdd5dJapfDwNrYfysdSfIEzOev56u1vKnqblTOsW/YNK86EE6L3J6hVZ7pHVLbWWKXwyDa27NrLhiXT+f5cRbGq5HzMowMCeHn8fdzSNoLOt91EE7nvhRBVUnl0lCzmPhzH0+lWdAF69PoAAgJCCGvZGI1qx263sO79caRNK6bYYif0wa/Y89WDv93qRznAR4N68+w6BV1AAAEhjWii06HT+aHaLBRvmsuEwTOx6pN4f/Mqnorx9lsACuEelQdZG83f0i7yt+q+u7Y9E9KLmVDd9xF1W9F/GRXzez49VtlKNC0N75nD9h9HO39jg0qp5K95hbvue5N1eZUMb2qCuWPWLn4a29Yr906Xi1nhfkHJvPTDLww5X8zFgrPsW/Iazyw+iE4posimkJ+5nt220YRX5y6QBan848VvOGEpC7Ge9gMnMmFQbyKb1ScoMJSIbuFeGWKQIIuaoKlPRI8kIgBQ6XZiHi9lxzLw9Bd8sdeOej6LrDMqtKrqcGQh6VOmcqZvPxqY95V+y+aD+eeXb3Bv8HVe6iW89QNK1FqFZKRsJbLvUJKjHe2ILYe9OVVfrV60biqvnxzB+Ma72etokBsk9yfRR0IMEmRR06yZmDLqkWiM5aaoZqUnoHKMrOyi672ycsUbmf7qQYa9cRcHUjIpnekQQA/j9dYBeBcJsqhR9l9TMRfEYewRRERMhGMOvo3sA4dwfQa+hS3vvsLuwdMY1HQTpgzHRAf/ThiSwnzq5Paln1V4nMpJcwoHuhmJb+BHWHSUo9W0cXBfdvnth5xVsv0DJm95gLeGtEHZlYL5ZGmfuDYskeQOvjWUKUEWNaiANaYttDck0kID/pExtHOUyUXZB8oX5DjFuosPX1jHgLceo51W4Zg5taI+TjDSozo94HWQBFnUnJJMTGsbkJDcAT/Ar217Ih0Lb2zZ+3C+v8vG3tnPs/ruaYyK8gPySTdtcrToenoZ432qPgYJsqhBtt0pmIv6YOzhSG9gBNGtS09B9UwWWeedW29q3/8xk34yMm3MTaXjp8XrMWU4dnb074zBiXXy3kaCLGqIwglzKjndjcSXDQv5RxIT6bi2tuewL8eJ7i4lh0+f+w/x056gU1lrvjMFs2MhgLZ1Erf74FRfCbKoIQWkm7YSY0iiWVlzqWlEVFTj0tbTfpj92cXXeD2AwqH5z7L0tqk81SWg/O8Op6Wy3w6goWGCwel18t5EgixqhmUDpnWhJCa3p6K99CcyJsIxvbCEnAOHrzkEpRz5iklf38yUid3Ql/2lmke6aUt5fRxr7EM99/wEtZoEWdQI267VpFv6YLisudTSKjrSsUGFnZx9OVe/G4lynMXPzSfqtefoeekeUZb1mNY6JpP434IxqanP1ccgQRY1QuFoWiqHbutLnyuaS11ke9r6AajkZ2dxutIhKJWT/36eea3+zotxl7+BbZsJ81lHfdw2kaQo36uPQYIsakQ+a1K20cGYSNMrmkv/djFElPV3Ze+jsv4u9cwPvDi7MZNfTrxiWEnhYFoq2Y76uFGCkW4+WB+DBFnUhOL1mNY1ITEpit+0l8GRtG9ZehoqJw6QfeX9wdRc/jt5BkHPv4oh5MqvncOcstVRHwfS2+jCPnJeRoIs3M62M4V0WzzGyppLv0hiIhzxtuWw77JZISp5P73Eu0zktX4Nf1v7Fq/FtNbR0+3fFWNSY5+sj0GCLNyudHjoSE8jcZU1l9pmREU5Qmo/yP7sihnX6vlVvPKWhb+90f+320gB1q0mzLml9bFfZDJJEb5ZH4MEWbibmke6aQedDImVhhH8iCxfBVVMdtYxxzbJBaS+NpX8J95kwJWFNQB2slPTOKgAaGicaKCrD2+TIUEW7mVZj2lDc5KSIn5bHwPgR5voSMe4sI2cfdnYgML0Kbx2YjRv/uEq0y3VXMwp2xzDVUHEGePceueS2k6CLNzKtt1EupKA4dardyfrI6MJdwxB5WZlkVu4jql/P8jwt/5My6udoUUZmNZZSv+s64YxIdRn62OQIAu3UjiYmsaJXgbirtFc+kXEUN7flb2dpVNf4tdH3ubhNlc/Pa1bUkjPc9TH0ckktfXtU9m3f3rhXspBli/bRsfkeEKv0VxqGkYR3dwxBJU1jylbH2T60GttW2vnQGoqhx31cdNEA118uD4GCbJwGysHv3mB99ZYUJTr7Bhw6RBU/Xgmvz+SyGt1QCuH+WnFdkd9XI8+xtiKudc+ysc/x8SNpBbksHHDLg7m7GTNj18wf9k2chU48uZghtvG88fYaFpHdaVHdOjlLYg2jOjIYDDbSHp1FmOuXIZoO8vezb9y6qKFi+dPsmflv3jDXHZDQTtZvyxiWbObaVZPhy40im6dw3wu2BJkcYPY2TnjTyT/fRtqgB69Xo++WUtaYqOk5ADfTR3LIouN4P5z2fn9cFpdlmQdXeLiaJ87gI+e7Pibk7Ik5SUMd8/hpDag9H31egJatKSVRsFqtXJoySSGfFWC1WrDr+PzrN7yBrE+dmb72I8r3MePLpM3cnFyVV6rJWLcCvaNq/yrAf1mc8w+uzoH5/WkRhbCC0iQhfACEmQhvIAEWQgvIEEWwgtIkIXwAhJkIbyABFkILyBBriPOzb8fvUaD5noPXS+m7XH9BqXCXSz8MCTk+r83jQa/yKdJd/WWlA4SZCG8gEZVVefunCU8QKXg8A72nSrB6V+SJpg2nTvSwtdWDdRaKudztnLgrN3536E2hHZdYmjqwta+EmQhvIBcWgvhBSTIQngBCbIQXkCCLIQXkCAL4QX+HxNHNe8YU/WaAAAAAElFTkSuQmCC;" vertex="1" parent="1">
          <mxGeometry x="373.33" y="770" width="84.91" height="40" as="geometry" />
        </mxCell>
        <mxCell id="rrRRbhQIlmtl_uCbY6pl-169" value="&lt;font style=&quot;font-size: 10px;&quot; face=&quot;Times New Roman&quot;&gt;1&lt;/font&gt;" style="text;html=1;strokeColor=none;fillColor=none;align=left;verticalAlign=middle;whiteSpace=wrap;rounded=0;" vertex="1" parent="1">
          <mxGeometry x="630" y="720" width="20" height="10" as="geometry" />
        </mxCell>
        <mxCell id="rrRRbhQIlmtl_uCbY6pl-170" value="&lt;font style=&quot;font-size: 10px;&quot; face=&quot;Times New Roman&quot;&gt;2&lt;/font&gt;" style="text;html=1;strokeColor=none;fillColor=none;align=left;verticalAlign=middle;whiteSpace=wrap;rounded=0;" vertex="1" parent="1">
          <mxGeometry x="660" y="720" width="20" height="10" as="geometry" />
        </mxCell>
        <mxCell id="rrRRbhQIlmtl_uCbY6pl-172" value="&lt;font style=&quot;font-size: 10px;&quot; face=&quot;Times New Roman&quot;&gt;0&lt;/font&gt;" style="text;html=1;strokeColor=none;fillColor=none;align=left;verticalAlign=middle;whiteSpace=wrap;rounded=0;" vertex="1" parent="1">
          <mxGeometry x="565" y="730" width="20" height="10" as="geometry" />
        </mxCell>
        <mxCell id="rrRRbhQIlmtl_uCbY6pl-173" value="&lt;font style=&quot;font-size: 10px;&quot; face=&quot;Times New Roman&quot;&gt;4&lt;/font&gt;" style="text;html=1;strokeColor=none;fillColor=none;align=left;verticalAlign=middle;whiteSpace=wrap;rounded=0;" vertex="1" parent="1">
          <mxGeometry x="600" y="730" width="20" height="10" as="geometry" />
        </mxCell>
        <mxCell id="rrRRbhQIlmtl_uCbY6pl-174" value="&lt;font style=&quot;font-size: 10px;&quot; face=&quot;Times New Roman&quot;&gt;0&lt;/font&gt;" style="text;html=1;strokeColor=none;fillColor=none;align=left;verticalAlign=middle;whiteSpace=wrap;rounded=0;" vertex="1" parent="1">
          <mxGeometry x="630" y="730" width="20" height="10" as="geometry" />
        </mxCell>
        <mxCell id="rrRRbhQIlmtl_uCbY6pl-175" value="&lt;font style=&quot;font-size: 10px;&quot; face=&quot;Times New Roman&quot;&gt;2&lt;/font&gt;" style="text;html=1;strokeColor=none;fillColor=none;align=left;verticalAlign=middle;whiteSpace=wrap;rounded=0;" vertex="1" parent="1">
          <mxGeometry x="660" y="730" width="20" height="10" as="geometry" />
        </mxCell>
        <mxCell id="rrRRbhQIlmtl_uCbY6pl-176" value="&lt;font style=&quot;font-size: 10px;&quot; face=&quot;Times New Roman&quot;&gt;0&lt;/font&gt;" style="text;html=1;strokeColor=none;fillColor=none;align=left;verticalAlign=middle;whiteSpace=wrap;rounded=0;" vertex="1" parent="1">
          <mxGeometry x="565" y="740" width="20" height="10" as="geometry" />
        </mxCell>
        <mxCell id="rrRRbhQIlmtl_uCbY6pl-177" value="&lt;font style=&quot;font-size: 10px;&quot; face=&quot;Times New Roman&quot;&gt;3&lt;/font&gt;" style="text;html=1;strokeColor=none;fillColor=none;align=left;verticalAlign=middle;whiteSpace=wrap;rounded=0;" vertex="1" parent="1">
          <mxGeometry x="600" y="740" width="20" height="10" as="geometry" />
        </mxCell>
        <mxCell id="rrRRbhQIlmtl_uCbY6pl-178" value="&lt;font style=&quot;font-size: 10px;&quot; face=&quot;Times New Roman&quot;&gt;1&lt;/font&gt;" style="text;html=1;strokeColor=none;fillColor=none;align=left;verticalAlign=middle;whiteSpace=wrap;rounded=0;" vertex="1" parent="1">
          <mxGeometry x="630" y="740" width="20" height="10" as="geometry" />
        </mxCell>
        <mxCell id="rrRRbhQIlmtl_uCbY6pl-179" value="&lt;font style=&quot;font-size: 10px;&quot; face=&quot;Times New Roman&quot;&gt;1&lt;/font&gt;" style="text;html=1;strokeColor=none;fillColor=none;align=left;verticalAlign=middle;whiteSpace=wrap;rounded=0;" vertex="1" parent="1">
          <mxGeometry x="660" y="740" width="20" height="10" as="geometry" />
        </mxCell>
        <mxCell id="rrRRbhQIlmtl_uCbY6pl-180" value="&lt;font style=&quot;font-size: 10px;&quot; face=&quot;Times New Roman&quot;&gt;0&lt;/font&gt;" style="text;html=1;strokeColor=none;fillColor=none;align=left;verticalAlign=middle;whiteSpace=wrap;rounded=0;" vertex="1" parent="1">
          <mxGeometry x="565" y="760" width="20" height="10" as="geometry" />
        </mxCell>
        <mxCell id="rrRRbhQIlmtl_uCbY6pl-181" value="&lt;font style=&quot;font-size: 10px;&quot; face=&quot;Times New Roman&quot;&gt;0&lt;/font&gt;" style="text;html=1;strokeColor=none;fillColor=none;align=left;verticalAlign=middle;whiteSpace=wrap;rounded=0;" vertex="1" parent="1">
          <mxGeometry x="565" y="750" width="20" height="10" as="geometry" />
        </mxCell>
        <mxCell id="rrRRbhQIlmtl_uCbY6pl-182" value="&lt;font style=&quot;font-size: 10px;&quot; face=&quot;Times New Roman&quot;&gt;2&lt;/font&gt;" style="text;html=1;strokeColor=none;fillColor=none;align=left;verticalAlign=middle;whiteSpace=wrap;rounded=0;" vertex="1" parent="1">
          <mxGeometry x="600" y="750" width="20" height="10" as="geometry" />
        </mxCell>
        <mxCell id="rrRRbhQIlmtl_uCbY6pl-183" value="&lt;font style=&quot;font-size: 10px;&quot; face=&quot;Times New Roman&quot;&gt;1&lt;/font&gt;" style="text;html=1;strokeColor=none;fillColor=none;align=left;verticalAlign=middle;whiteSpace=wrap;rounded=0;" vertex="1" parent="1">
          <mxGeometry x="600" y="760" width="20" height="10" as="geometry" />
        </mxCell>
        <mxCell id="rrRRbhQIlmtl_uCbY6pl-184" value="&lt;font style=&quot;font-size: 10px;&quot; face=&quot;Times New Roman&quot;&gt;0&lt;/font&gt;" style="text;html=1;strokeColor=none;fillColor=none;align=left;verticalAlign=middle;whiteSpace=wrap;rounded=0;" vertex="1" parent="1">
          <mxGeometry x="630" y="750" width="20" height="10" as="geometry" />
        </mxCell>
        <mxCell id="rrRRbhQIlmtl_uCbY6pl-185" value="&lt;font style=&quot;font-size: 10px;&quot; face=&quot;Times New Roman&quot;&gt;1&lt;/font&gt;" style="text;html=1;strokeColor=none;fillColor=none;align=left;verticalAlign=middle;whiteSpace=wrap;rounded=0;" vertex="1" parent="1">
          <mxGeometry x="630" y="760" width="20" height="10" as="geometry" />
        </mxCell>
        <mxCell id="rrRRbhQIlmtl_uCbY6pl-186" value="&lt;font style=&quot;font-size: 10px;&quot; face=&quot;Times New Roman&quot;&gt;1&lt;/font&gt;" style="text;html=1;strokeColor=none;fillColor=none;align=left;verticalAlign=middle;whiteSpace=wrap;rounded=0;" vertex="1" parent="1">
          <mxGeometry x="660" y="750" width="20" height="10" as="geometry" />
        </mxCell>
        <mxCell id="rrRRbhQIlmtl_uCbY6pl-187" value="&lt;font style=&quot;font-size: 10px;&quot; face=&quot;Times New Roman&quot;&gt;0&lt;/font&gt;" style="text;html=1;strokeColor=none;fillColor=none;align=left;verticalAlign=middle;whiteSpace=wrap;rounded=0;" vertex="1" parent="1">
          <mxGeometry x="660" y="760" width="20" height="10" as="geometry" />
        </mxCell>
        <mxCell id="rrRRbhQIlmtl_uCbY6pl-188" value="&lt;font style=&quot;font-size: 10px;&quot; face=&quot;Times New Roman&quot;&gt;1&lt;/font&gt;" style="text;html=1;strokeColor=none;fillColor=none;align=left;verticalAlign=middle;whiteSpace=wrap;rounded=0;" vertex="1" parent="1">
          <mxGeometry x="565" y="770" width="20" height="10" as="geometry" />
        </mxCell>
        <mxCell id="rrRRbhQIlmtl_uCbY6pl-189" value="&lt;font style=&quot;font-size: 10px;&quot; face=&quot;Times New Roman&quot;&gt;1&lt;/font&gt;" style="text;html=1;strokeColor=none;fillColor=none;align=left;verticalAlign=middle;whiteSpace=wrap;rounded=0;" vertex="1" parent="1">
          <mxGeometry x="565" y="780" width="20" height="10" as="geometry" />
        </mxCell>
        <mxCell id="rrRRbhQIlmtl_uCbY6pl-190" value="&lt;font style=&quot;font-size: 10px;&quot; face=&quot;Times New Roman&quot;&gt;1&lt;/font&gt;" style="text;html=1;strokeColor=none;fillColor=none;align=left;verticalAlign=middle;whiteSpace=wrap;rounded=0;" vertex="1" parent="1">
          <mxGeometry x="565" y="790" width="20" height="10" as="geometry" />
        </mxCell>
        <mxCell id="rrRRbhQIlmtl_uCbY6pl-191" value="&lt;font style=&quot;font-size: 10px;&quot; face=&quot;Times New Roman&quot;&gt;1&lt;/font&gt;" style="text;html=1;strokeColor=none;fillColor=none;align=left;verticalAlign=middle;whiteSpace=wrap;rounded=0;" vertex="1" parent="1">
          <mxGeometry x="565" y="800" width="20" height="10" as="geometry" />
        </mxCell>
        <mxCell id="rrRRbhQIlmtl_uCbY6pl-192" value="&lt;font style=&quot;font-size: 10px;&quot; face=&quot;Times New Roman&quot;&gt;1&lt;/font&gt;" style="text;html=1;strokeColor=none;fillColor=none;align=left;verticalAlign=middle;whiteSpace=wrap;rounded=0;" vertex="1" parent="1">
          <mxGeometry x="565" y="810" width="20" height="10" as="geometry" />
        </mxCell>
        <mxCell id="rrRRbhQIlmtl_uCbY6pl-193" value="&lt;font style=&quot;font-size: 10px;&quot; face=&quot;Times New Roman&quot;&gt;5&lt;/font&gt;" style="text;html=1;strokeColor=none;fillColor=none;align=left;verticalAlign=middle;whiteSpace=wrap;rounded=0;" vertex="1" parent="1">
          <mxGeometry x="600" y="770" width="20" height="10" as="geometry" />
        </mxCell>
        <mxCell id="rrRRbhQIlmtl_uCbY6pl-194" value="&lt;font style=&quot;font-size: 10px;&quot; face=&quot;Times New Roman&quot;&gt;4&lt;/font&gt;" style="text;html=1;strokeColor=none;fillColor=none;align=left;verticalAlign=middle;whiteSpace=wrap;rounded=0;" vertex="1" parent="1">
          <mxGeometry x="600" y="780" width="20" height="10" as="geometry" />
        </mxCell>
        <mxCell id="rrRRbhQIlmtl_uCbY6pl-195" value="&lt;font style=&quot;font-size: 10px;&quot; face=&quot;Times New Roman&quot;&gt;3&lt;/font&gt;" style="text;html=1;strokeColor=none;fillColor=none;align=left;verticalAlign=middle;whiteSpace=wrap;rounded=0;" vertex="1" parent="1">
          <mxGeometry x="600" y="790" width="20" height="10" as="geometry" />
        </mxCell>
        <mxCell id="rrRRbhQIlmtl_uCbY6pl-196" value="&lt;font style=&quot;font-size: 10px;&quot; face=&quot;Times New Roman&quot;&gt;2&lt;/font&gt;" style="text;html=1;strokeColor=none;fillColor=none;align=left;verticalAlign=middle;whiteSpace=wrap;rounded=0;" vertex="1" parent="1">
          <mxGeometry x="600" y="800" width="20" height="10" as="geometry" />
        </mxCell>
        <mxCell id="rrRRbhQIlmtl_uCbY6pl-197" value="&lt;font style=&quot;font-size: 10px;&quot; face=&quot;Times New Roman&quot;&gt;1&lt;/font&gt;" style="text;html=1;strokeColor=none;fillColor=none;align=left;verticalAlign=middle;whiteSpace=wrap;rounded=0;" vertex="1" parent="1">
          <mxGeometry x="600" y="810" width="20" height="10" as="geometry" />
        </mxCell>
        <mxCell id="rrRRbhQIlmtl_uCbY6pl-198" value="&lt;font style=&quot;font-size: 10px;&quot; face=&quot;Times New Roman&quot;&gt;0&lt;/font&gt;" style="text;html=1;strokeColor=none;fillColor=none;align=left;verticalAlign=middle;whiteSpace=wrap;rounded=0;" vertex="1" parent="1">
          <mxGeometry x="630" y="770" width="20" height="10" as="geometry" />
        </mxCell>
        <mxCell id="rrRRbhQIlmtl_uCbY6pl-199" value="&lt;font style=&quot;font-size: 10px;&quot; face=&quot;Times New Roman&quot;&gt;1&lt;/font&gt;" style="text;html=1;strokeColor=none;fillColor=none;align=left;verticalAlign=middle;whiteSpace=wrap;rounded=0;" vertex="1" parent="1">
          <mxGeometry x="630" y="780" width="20" height="10" as="geometry" />
        </mxCell>
        <mxCell id="rrRRbhQIlmtl_uCbY6pl-200" value="&lt;font style=&quot;font-size: 10px;&quot; face=&quot;Times New Roman&quot;&gt;0&lt;/font&gt;" style="text;html=1;strokeColor=none;fillColor=none;align=left;verticalAlign=middle;whiteSpace=wrap;rounded=0;" vertex="1" parent="1">
          <mxGeometry x="630" y="790" width="20" height="10" as="geometry" />
        </mxCell>
        <mxCell id="rrRRbhQIlmtl_uCbY6pl-201" value="&lt;font style=&quot;font-size: 10px;&quot; face=&quot;Times New Roman&quot;&gt;1&lt;/font&gt;" style="text;html=1;strokeColor=none;fillColor=none;align=left;verticalAlign=middle;whiteSpace=wrap;rounded=0;" vertex="1" parent="1">
          <mxGeometry x="630" y="800" width="20" height="10" as="geometry" />
        </mxCell>
        <mxCell id="rrRRbhQIlmtl_uCbY6pl-202" value="&lt;font style=&quot;font-size: 10px;&quot; face=&quot;Times New Roman&quot;&gt;0&lt;/font&gt;" style="text;html=1;strokeColor=none;fillColor=none;align=left;verticalAlign=middle;whiteSpace=wrap;rounded=0;" vertex="1" parent="1">
          <mxGeometry x="630" y="810" width="20" height="10" as="geometry" />
        </mxCell>
        <mxCell id="rrRRbhQIlmtl_uCbY6pl-204" value="&lt;font style=&quot;font-size: 10px;&quot; face=&quot;Times New Roman&quot;&gt;3&lt;/font&gt;" style="text;html=1;strokeColor=none;fillColor=none;align=left;verticalAlign=middle;whiteSpace=wrap;rounded=0;" vertex="1" parent="1">
          <mxGeometry x="660" y="770" width="20" height="10" as="geometry" />
        </mxCell>
        <mxCell id="rrRRbhQIlmtl_uCbY6pl-205" value="&lt;font style=&quot;font-size: 10px;&quot; face=&quot;Times New Roman&quot;&gt;2&lt;/font&gt;" style="text;html=1;strokeColor=none;fillColor=none;align=left;verticalAlign=middle;whiteSpace=wrap;rounded=0;" vertex="1" parent="1">
          <mxGeometry x="660" y="780" width="20" height="10" as="geometry" />
        </mxCell>
        <mxCell id="rrRRbhQIlmtl_uCbY6pl-206" value="&lt;font style=&quot;font-size: 10px;&quot; face=&quot;Times New Roman&quot;&gt;2&lt;/font&gt;" style="text;html=1;strokeColor=none;fillColor=none;align=left;verticalAlign=middle;whiteSpace=wrap;rounded=0;" vertex="1" parent="1">
          <mxGeometry x="660" y="790" width="20" height="10" as="geometry" />
        </mxCell>
        <mxCell id="rrRRbhQIlmtl_uCbY6pl-207" value="&lt;font style=&quot;font-size: 10px;&quot; face=&quot;Times New Roman&quot;&gt;1&lt;/font&gt;" style="text;html=1;strokeColor=none;fillColor=none;align=left;verticalAlign=middle;whiteSpace=wrap;rounded=0;" vertex="1" parent="1">
          <mxGeometry x="660" y="810" width="20" height="10" as="geometry" />
        </mxCell>
        <mxCell id="rrRRbhQIlmtl_uCbY6pl-208" value="&lt;font style=&quot;font-size: 10px;&quot; face=&quot;Times New Roman&quot;&gt;1&lt;/font&gt;" style="text;html=1;strokeColor=none;fillColor=none;align=left;verticalAlign=middle;whiteSpace=wrap;rounded=0;" vertex="1" parent="1">
          <mxGeometry x="660" y="800" width="20" height="10" as="geometry" />
        </mxCell>
        <mxCell id="rrRRbhQIlmtl_uCbY6pl-209" value="" style="endArrow=none;html=1;rounded=0;" edge="1" parent="1">
          <mxGeometry width="50" height="50" relative="1" as="geometry">
            <mxPoint x="560" y="710" as="sourcePoint" />
            <mxPoint x="680" y="710" as="targetPoint" />
          </mxGeometry>
        </mxCell>
        <mxCell id="rrRRbhQIlmtl_uCbY6pl-210" value="" style="endArrow=none;html=1;rounded=0;entryX=1;entryY=1;entryDx=0;entryDy=0;" edge="1" parent="1" target="rrRRbhQIlmtl_uCbY6pl-197">
          <mxGeometry width="50" height="50" relative="1" as="geometry">
            <mxPoint x="620" y="690" as="sourcePoint" />
            <mxPoint x="620" y="840" as="targetPoint" />
          </mxGeometry>
        </mxCell>
        <mxCell id="rrRRbhQIlmtl_uCbY6pl-211" value="&lt;font style=&quot;&quot; face=&quot;Times New Roman&quot;&gt;2T&lt;/font&gt;" style="rounded=0;whiteSpace=wrap;html=1;" vertex="1" parent="1">
          <mxGeometry x="340" y="969" width="20" height="20" as="geometry" />
        </mxCell>
        <mxCell id="rrRRbhQIlmtl_uCbY6pl-213" value="" style="endArrow=blockThin;html=1;rounded=0;endFill=1;entryX=0;entryY=0.5;entryDx=0;entryDy=0;" edge="1" parent="1" target="rrRRbhQIlmtl_uCbY6pl-211">
          <mxGeometry width="50" height="50" relative="1" as="geometry">
            <mxPoint x="190" y="980" as="sourcePoint" />
            <mxPoint x="270" y="980" as="targetPoint" />
          </mxGeometry>
        </mxCell>
        <mxCell id="rrRRbhQIlmtl_uCbY6pl-214" value="" style="endArrow=blockThin;html=1;rounded=0;endFill=1;exitX=1;exitY=0.5;exitDx=0;exitDy=0;" edge="1" parent="1" source="rrRRbhQIlmtl_uCbY6pl-211">
          <mxGeometry width="50" height="50" relative="1" as="geometry">
            <mxPoint x="290" y="980" as="sourcePoint" />
            <mxPoint x="560" y="980" as="targetPoint" />
          </mxGeometry>
        </mxCell>
        <mxCell id="rrRRbhQIlmtl_uCbY6pl-216" value="&lt;font style=&quot;&quot; face=&quot;Times New Roman&quot;&gt;2T&lt;/font&gt;" style="rounded=0;whiteSpace=wrap;html=1;" vertex="1" parent="1">
          <mxGeometry x="150" y="1030" width="20" height="20" as="geometry" />
        </mxCell>
        <mxCell id="rrRRbhQIlmtl_uCbY6pl-217" value="" style="endArrow=blockThin;html=1;rounded=0;endFill=1;exitX=0;exitY=0.5;exitDx=0;exitDy=0;" edge="1" parent="1">
          <mxGeometry width="50" height="50" relative="1" as="geometry">
            <mxPoint x="150" y="1040" as="sourcePoint" />
            <mxPoint x="130" y="970" as="targetPoint" />
            <Array as="points">
              <mxPoint x="100" y="1040" />
              <mxPoint x="100" y="970" />
            </Array>
          </mxGeometry>
        </mxCell>
        <mxCell id="rrRRbhQIlmtl_uCbY6pl-218" value="" style="endArrow=blockThin;html=1;rounded=0;endFill=1;entryX=1;entryY=0.5;entryDx=0;entryDy=0;" edge="1" parent="1">
          <mxGeometry width="50" height="50" relative="1" as="geometry">
            <mxPoint x="190" y="970" as="sourcePoint" />
            <mxPoint x="170" y="1040" as="targetPoint" />
            <Array as="points">
              <mxPoint x="220" y="970" />
              <mxPoint x="220" y="1040" />
            </Array>
          </mxGeometry>
        </mxCell>
        <mxCell id="rrRRbhQIlmtl_uCbY6pl-219" value="&lt;font style=&quot;&quot; face=&quot;Times New Roman&quot;&gt;T&lt;/font&gt;" style="rounded=0;whiteSpace=wrap;html=1;" vertex="1" parent="1">
          <mxGeometry x="150" y="1090" width="20" height="20" as="geometry" />
        </mxCell>
        <mxCell id="rrRRbhQIlmtl_uCbY6pl-220" value="" style="endArrow=blockThin;html=1;rounded=0;endFill=1;exitX=0;exitY=0.5;exitDx=0;exitDy=0;" edge="1" parent="1">
          <mxGeometry width="50" height="50" relative="1" as="geometry">
            <mxPoint x="150" y="1100" as="sourcePoint" />
            <mxPoint x="130" y="950" as="targetPoint" />
            <Array as="points">
              <mxPoint x="80" y="1100" />
              <mxPoint x="80" y="950" />
            </Array>
          </mxGeometry>
        </mxCell>
        <mxCell id="rrRRbhQIlmtl_uCbY6pl-221" value="" style="endArrow=blockThin;html=1;rounded=0;endFill=1;entryX=1;entryY=0.5;entryDx=0;entryDy=0;" edge="1" parent="1" target="rrRRbhQIlmtl_uCbY6pl-219">
          <mxGeometry width="50" height="50" relative="1" as="geometry">
            <mxPoint x="190" y="950" as="sourcePoint" />
            <mxPoint x="180" y="1080" as="targetPoint" />
            <Array as="points">
              <mxPoint x="240" y="950" />
              <mxPoint x="240" y="1100" />
            </Array>
          </mxGeometry>
        </mxCell>
        <mxCell id="rrRRbhQIlmtl_uCbY6pl-222" value="" style="endArrow=blockThin;html=1;rounded=0;endFill=1;entryX=0;entryY=0.5;entryDx=0;entryDy=0;" edge="1" parent="1" target="rrRRbhQIlmtl_uCbY6pl-223">
          <mxGeometry width="50" height="50" relative="1" as="geometry">
            <mxPoint x="190" y="960" as="sourcePoint" />
            <mxPoint x="300" y="960" as="targetPoint" />
          </mxGeometry>
        </mxCell>
        <mxCell id="rrRRbhQIlmtl_uCbY6pl-223" value="&lt;font style=&quot;&quot; face=&quot;Times New Roman&quot;&gt;T&lt;/font&gt;" style="rounded=0;whiteSpace=wrap;html=1;" vertex="1" parent="1">
          <mxGeometry x="370" y="949" width="20" height="20" as="geometry" />
        </mxCell>
        <mxCell id="rrRRbhQIlmtl_uCbY6pl-224" value="" style="endArrow=blockThin;html=1;rounded=0;endFill=1;exitX=1;exitY=0.5;exitDx=0;exitDy=0;" edge="1" parent="1" source="rrRRbhQIlmtl_uCbY6pl-223">
          <mxGeometry width="50" height="50" relative="1" as="geometry">
            <mxPoint x="450" y="958.83" as="sourcePoint" />
            <mxPoint x="560" y="960" as="targetPoint" />
          </mxGeometry>
        </mxCell>
        <mxCell id="rrRRbhQIlmtl_uCbY6pl-225" value="" style="endArrow=blockThin;html=1;rounded=0;endFill=1;exitX=1;exitY=0.5;exitDx=0;exitDy=0;" edge="1" parent="1">
          <mxGeometry width="50" height="50" relative="1" as="geometry">
            <mxPoint x="190" y="940" as="sourcePoint" />
            <mxPoint x="560" y="940" as="targetPoint" />
          </mxGeometry>
        </mxCell>
        <mxCell id="rrRRbhQIlmtl_uCbY6pl-226" value="&lt;font style=&quot;&quot; face=&quot;Times New Roman&quot;&gt;2T&lt;/font&gt;" style="rounded=0;whiteSpace=wrap;html=1;" vertex="1" parent="1">
          <mxGeometry x="580" y="1029" width="20" height="20" as="geometry" />
        </mxCell>
        <mxCell id="rrRRbhQIlmtl_uCbY6pl-227" value="" style="endArrow=blockThin;html=1;rounded=0;endFill=1;exitX=0;exitY=0.5;exitDx=0;exitDy=0;" edge="1" parent="1">
          <mxGeometry width="50" height="50" relative="1" as="geometry">
            <mxPoint x="580" y="1039" as="sourcePoint" />
            <mxPoint x="560" y="969" as="targetPoint" />
            <Array as="points">
              <mxPoint x="530" y="1039" />
              <mxPoint x="530" y="969" />
            </Array>
          </mxGeometry>
        </mxCell>
        <mxCell id="rrRRbhQIlmtl_uCbY6pl-228" value="" style="endArrow=blockThin;html=1;rounded=0;endFill=1;entryX=1;entryY=0.5;entryDx=0;entryDy=0;" edge="1" parent="1">
          <mxGeometry width="50" height="50" relative="1" as="geometry">
            <mxPoint x="620" y="969" as="sourcePoint" />
            <mxPoint x="600" y="1039" as="targetPoint" />
            <Array as="points">
              <mxPoint x="650" y="969" />
              <mxPoint x="650" y="1039" />
            </Array>
          </mxGeometry>
        </mxCell>
        <mxCell id="rrRRbhQIlmtl_uCbY6pl-229" value="" style="endArrow=blockThin;html=1;rounded=0;endFill=1;exitX=0;exitY=0.5;exitDx=0;exitDy=0;" edge="1" parent="1">
          <mxGeometry width="50" height="50" relative="1" as="geometry">
            <mxPoint x="580" y="1100" as="sourcePoint" />
            <mxPoint x="560" y="950" as="targetPoint" />
            <Array as="points">
              <mxPoint x="510" y="1100" />
              <mxPoint x="510" y="950" />
            </Array>
          </mxGeometry>
        </mxCell>
        <mxCell id="rrRRbhQIlmtl_uCbY6pl-230" value="&lt;font style=&quot;&quot; face=&quot;Times New Roman&quot;&gt;T&lt;/font&gt;" style="rounded=0;whiteSpace=wrap;html=1;" vertex="1" parent="1">
          <mxGeometry x="580" y="1090" width="20" height="20" as="geometry" />
        </mxCell>
        <mxCell id="rrRRbhQIlmtl_uCbY6pl-231" value="" style="endArrow=blockThin;html=1;rounded=0;endFill=1;entryX=1;entryY=0.5;entryDx=0;entryDy=0;" edge="1" target="rrRRbhQIlmtl_uCbY6pl-230" parent="1">
          <mxGeometry width="50" height="50" relative="1" as="geometry">
            <mxPoint x="620" y="950" as="sourcePoint" />
            <mxPoint x="610" y="1080" as="targetPoint" />
            <Array as="points">
              <mxPoint x="670" y="950" />
              <mxPoint x="670" y="1100" />
            </Array>
          </mxGeometry>
        </mxCell>
        <mxCell id="rrRRbhQIlmtl_uCbY6pl-232" value="" style="endArrow=blockThin;html=1;rounded=0;endFill=1;entryX=1;entryY=0.5;entryDx=0;entryDy=0;" edge="1" parent="1">
          <mxGeometry width="50" height="50" relative="1" as="geometry">
            <mxPoint x="620" y="980.0000000000001" as="sourcePoint" />
            <mxPoint x="600" y="1010.2" as="targetPoint" />
            <Array as="points">
              <mxPoint x="640" y="980.2" />
              <mxPoint x="640" y="1010.2" />
            </Array>
          </mxGeometry>
        </mxCell>
        <mxCell id="rrRRbhQIlmtl_uCbY6pl-233" value="&lt;font style=&quot;&quot; face=&quot;Times New Roman&quot;&gt;3T&lt;/font&gt;" style="rounded=0;whiteSpace=wrap;html=1;" vertex="1" parent="1">
          <mxGeometry x="580" y="1000" width="20" height="20" as="geometry" />
        </mxCell>
        <mxCell id="rrRRbhQIlmtl_uCbY6pl-234" value="" style="endArrow=blockThin;html=1;rounded=0;endFill=1;entryX=0;entryY=0.75;entryDx=0;entryDy=0;exitX=0;exitY=0.5;exitDx=0;exitDy=0;" edge="1" parent="1" source="rrRRbhQIlmtl_uCbY6pl-233">
          <mxGeometry width="50" height="50" relative="1" as="geometry">
            <mxPoint x="150" y="1010" as="sourcePoint" />
            <mxPoint x="130" y="980" as="targetPoint" />
            <Array as="points">
              <mxPoint x="110" y="1010" />
              <mxPoint x="110" y="980" />
            </Array>
          </mxGeometry>
        </mxCell>
        <mxCell id="rrRRbhQIlmtl_uCbY6pl-235" value="&lt;font style=&quot;&quot; face=&quot;Times New Roman&quot;&gt;2T&lt;/font&gt;" style="rounded=0;whiteSpace=wrap;html=1;" vertex="1" parent="1">
          <mxGeometry x="580" y="1060" width="20" height="20" as="geometry" />
        </mxCell>
        <mxCell id="rrRRbhQIlmtl_uCbY6pl-236" value="" style="endArrow=blockThin;html=1;rounded=0;endFill=1;entryX=1;entryY=0.5;entryDx=0;entryDy=0;" edge="1" parent="1" target="rrRRbhQIlmtl_uCbY6pl-235">
          <mxGeometry width="50" height="50" relative="1" as="geometry">
            <mxPoint x="620" y="960" as="sourcePoint" />
            <mxPoint x="610" y="1050" as="targetPoint" />
            <Array as="points">
              <mxPoint x="660" y="960" />
              <mxPoint x="660" y="1070" />
            </Array>
          </mxGeometry>
        </mxCell>
        <mxCell id="rrRRbhQIlmtl_uCbY6pl-237" value="" style="endArrow=blockThin;html=1;rounded=0;endFill=1;exitX=0;exitY=0.5;exitDx=0;exitDy=0;" edge="1" parent="1" source="rrRRbhQIlmtl_uCbY6pl-235">
          <mxGeometry width="50" height="50" relative="1" as="geometry">
            <mxPoint x="150" y="1070" as="sourcePoint" />
            <mxPoint x="130" y="960" as="targetPoint" />
            <Array as="points">
              <mxPoint x="90" y="1070" />
              <mxPoint x="90" y="960" />
            </Array>
          </mxGeometry>
        </mxCell>
        <mxCell id="rrRRbhQIlmtl_uCbY6pl-238" value="" style="endArrow=blockThin;html=1;rounded=0;endFill=1;" edge="1" parent="1">
          <mxGeometry width="50" height="50" relative="1" as="geometry">
            <mxPoint x="620" y="940" as="sourcePoint" />
            <mxPoint x="130" y="940" as="targetPoint" />
            <Array as="points">
              <mxPoint x="680" y="940" />
              <mxPoint x="680" y="1130" />
              <mxPoint x="70" y="1130" />
              <mxPoint x="70" y="940" />
            </Array>
          </mxGeometry>
        </mxCell>
      </root>
    </mxGraphModel>
  </diagram>
</mxfile>
